<svg width="159" height="133" viewBox="0 0 159 133" fill="none" xmlns="http://www.w3.org/2000/svg">
<path fill-rule="evenodd" clip-rule="evenodd" d="M43.7404 5.26456C12.7711 17.2508 -5.2525 49.3312 1.3613 80.6809C7.13899 108.039 41.0206 132.989 72.3986 132.989C90.1967 132.989 84.2593 123.098 64.7279 120.201C32.0159 115.358 13.4428 95.7942 13.4428 66.1896C13.4428 33.3703 37.9204 11.9153 75.3626 11.9153C104.707 11.9153 135.634 31.5834 116.29 37.9461C101.658 42.7556 110.931 50.7381 127.691 47.7614C144.54 44.7638 149.496 39.2528 149.594 23.3964C149.669 11.0343 141.745 7.81546 137.193 18.3572C134.779 23.9516 133.403 24.0184 126.77 18.8624C102.659 0.116846 70.5996 -5.13524 43.7404 5.26456ZM69.8104 41.954C69.8104 59.7852 67.5745 65.722 57.2357 75.3119C40.316 91.0097 47.4043 95.8819 65.1601 80.7602C77.6033 70.1683 79.205 66.031 79.205 44.5341C79.205 31.1367 77.1006 20.2652 74.5077 20.2652C71.9242 20.2652 69.8104 30.0262 69.8104 41.954ZM137.776 78.9232C133.313 85.3443 139.424 89.4858 145.456 84.1252C148.828 81.1276 148.908 78.7938 145.7 77.032C143.07 75.5874 139.504 76.4391 137.776 78.9232ZM123.637 104.044C121.932 106.49 121.669 109.496 123.045 110.724C126.413 113.713 135.573 108.444 135.573 103.518C135.573 98.1823 127.465 98.5371 123.637 104.044ZM98.8961 120.777C99.8215 123.244 102.584 125.265 105.04 125.265C107.497 125.265 110.259 123.244 111.184 120.777C112.11 118.31 109.348 116.289 105.04 116.289C100.733 116.289 97.9708 118.31 98.8961 120.777Z" fill="black"/>
<path d="M132.356 33.6885L149.595 21.5129L153.377 63.8365L108.041 44.9815L132.356 33.6885Z" fill="black"/>
</svg>
