<svg width="998" height="176" viewBox="0 0 998 176" fill="none" xmlns="http://www.w3.org/2000/svg">
<rect width="998" height="176" fill="white"/>
<path fill-rule="evenodd" clip-rule="evenodd" d="M165.274 7.63257C164.615 8.53084 163.08 11.735 161.862 14.7542L159.648 20.2425L163.017 31.6292C164.87 37.8917 166.385 43.1369 166.385 43.2857C166.385 43.4344 162.716 43.3989 158.231 43.2073C134.097 42.1741 112.718 53.6993 101.912 73.5695C90.7047 94.1776 94.3014 119.6 110.841 136.69C115.076 141.066 124.81 148.215 126.533 148.215C127.525 148.215 136.046 141.124 136.046 140.299C136.046 140.001 134.254 138.965 132.064 137.999C129.61 136.917 125.886 134.154 122.361 130.801C113.25 122.135 109.5 113.671 109.5 101.777C109.5 90.7165 113.125 81.8985 120.978 73.8619C128.991 65.6606 139.715 61.0807 151.216 60.9479C166.387 60.7731 179.325 67.193 187.573 78.9896C198.228 94.2298 197.315 113.346 185.239 127.855C181.447 132.412 173.363 137.993 167.36 140.198C163.205 141.725 162.737 142.16 158.556 148.383L154.14 154.956L158.969 154.483C166.133 153.781 174.3 151.401 181.155 148.018C189.715 143.792 200.444 133.528 204.861 125.339C214.48 107.504 214.002 87.323 203.564 70.5148C200.045 64.8494 193.04 57.3403 188.408 54.2696C186.724 53.1537 185.348 52.0399 185.35 51.7946C185.351 51.5494 190.642 48.8009 197.108 45.6859C210.036 39.4582 209.735 39.7441 212.712 30.8419C214.249 26.2446 214.333 25.4421 213.373 24.5583C212.125 23.4104 169.095 6 167.504 6C166.936 6 165.932 6.73429 165.274 7.63257ZM37.2454 50.5655C27.7599 59.9118 20 68.0478 20 68.6449C20 70.2674 28.2416 79.0789 30.5291 79.9024C31.6213 80.2957 37.9485 80.9712 44.5889 81.4036C51.2301 81.8368 56.7684 82.291 56.8966 82.4137C57.0248 82.5363 55.5943 85.5554 53.7171 89.1232C49.17 97.7671 47.3035 105.135 47.3103 114.41C47.3217 130.371 53.4038 144.057 65.2512 154.783C70.7789 159.787 72.9474 161.243 79.6993 164.485C91.0339 169.927 106.319 171.484 119.257 168.518C136.953 164.459 152.341 151.631 159.308 135.129C167.536 115.643 163.216 92.844 148.301 77.0349L144.249 72.7401L139.864 74.9764C137.452 76.2055 134.431 78.2495 133.151 79.5178L130.823 81.8238L135.1 85.0889C140.168 88.9584 145.707 96.4537 148.126 102.718C150.279 108.287 151.051 119.126 149.73 125.213C147.29 136.456 138.055 147.957 127.512 152.881C109.592 161.251 91.3972 158.494 77.6309 145.325C64.2287 132.503 61.1471 114.994 69.3613 98.3337C71.1938 94.6158 73.3812 91.9225 78.4213 87.1757C83.2186 82.6582 85.2164 80.2376 85.6078 78.4687C85.9059 77.1212 87.3075 73.0355 88.7228 69.3887C91.9327 61.1184 91.9827 60.2347 89.2105 60.8681C85.0033 61.8302 77.1865 64.8828 74.3505 66.6713C72.7479 67.6821 71.3295 68.4033 71.1983 68.2734C71.0671 68.1436 70.3913 63.3032 69.6958 57.5166C69.001 51.7301 68.0909 45.9392 67.6737 44.6476C66.8439 42.0812 57.605 33.5723 55.6482 33.5723C55.011 33.5723 46.73 41.2192 37.2454 50.5655Z" fill="#FFD588"/>
<path fill-rule="evenodd" clip-rule="evenodd" d="M165.274 7.63257C164.615 8.53084 163.08 11.735 161.862 14.7542L159.648 20.2425L163.017 31.6292C164.87 37.8917 166.385 43.1369 166.385 43.2857C166.385 43.4344 162.716 43.3989 158.231 43.2073C134.097 42.1741 112.718 53.6993 101.912 73.5695C90.7047 94.1776 94.3014 119.6 110.841 136.69C115.076 141.066 124.81 148.215 126.533 148.215C127.525 148.215 136.046 141.124 136.046 140.299C136.046 140.001 134.254 138.965 132.064 137.999C129.61 136.917 125.886 134.154 122.361 130.801C113.25 122.135 109.5 113.671 109.5 101.777C109.5 90.7165 113.125 81.8985 120.978 73.8619C128.991 65.6606 139.715 61.0807 151.216 60.9479C166.387 60.7731 179.325 67.193 187.573 78.9896C198.228 94.2298 197.315 113.346 185.239 127.855C181.447 132.412 173.363 137.993 167.36 140.198C163.205 141.725 162.737 142.16 158.556 148.383L154.14 154.956L158.969 154.483C166.133 153.781 174.3 151.401 181.155 148.018C189.715 143.792 200.444 133.528 204.861 125.339C214.48 107.504 214.002 87.323 203.564 70.5148C200.045 64.8494 193.04 57.3403 188.408 54.2696C186.724 53.1537 185.348 52.0399 185.35 51.7946C185.351 51.5494 190.642 48.8009 197.108 45.6859C210.036 39.4582 209.735 39.7441 212.712 30.8419C214.249 26.2446 214.333 25.4421 213.373 24.5583C212.125 23.4104 169.095 6 167.504 6C166.936 6 165.932 6.73429 165.274 7.63257ZM37.2454 50.5655C27.7599 59.9118 20 68.0478 20 68.6449C20 70.2674 28.2416 79.0789 30.5291 79.9024C31.6213 80.2957 37.9485 80.9712 44.5889 81.4036C51.2301 81.8368 56.7684 82.291 56.8966 82.4137C57.0248 82.5363 55.5943 85.5554 53.7171 89.1232C49.17 97.7671 47.3035 105.135 47.3103 114.41C47.3217 130.371 53.4038 144.057 65.2512 154.783C70.7789 159.787 72.9474 161.243 79.6993 164.485C91.0339 169.927 106.319 171.484 119.257 168.518C136.953 164.459 152.341 151.631 159.308 135.129C167.536 115.643 163.216 92.844 148.301 77.0349L144.249 72.7401L139.864 74.9764C137.452 76.2055 134.431 78.2495 133.151 79.5178L130.823 81.8238L135.1 85.0889C140.168 88.9584 145.707 96.4537 148.126 102.718C150.279 108.287 151.051 119.126 149.73 125.213C147.29 136.456 138.055 147.957 127.512 152.881C109.592 161.251 91.3972 158.494 77.6309 145.325C64.2287 132.503 61.1471 114.994 69.3613 98.3337C71.1938 94.6158 73.3812 91.9225 78.4213 87.1757C83.2186 82.6582 85.2164 80.2376 85.6078 78.4687C85.9059 77.1212 87.3075 73.0355 88.7228 69.3887C91.9327 61.1184 91.9827 60.2347 89.2105 60.8681C85.0033 61.8302 77.1865 64.8828 74.3505 66.6713C72.7479 67.6821 71.3295 68.4033 71.1983 68.2734C71.0671 68.1436 70.3913 63.3032 69.6958 57.5166C69.001 51.7301 68.0909 45.9392 67.6737 44.6476C66.8439 42.0812 57.605 33.5723 55.6482 33.5723C55.011 33.5723 46.73 41.2192 37.2454 50.5655Z" fill="url(#paint0_linear_9536_13)"/>
<path d="M278.597 98C270.948 98 264.509 96.5726 259.279 93.7178C254.114 90.7967 250.224 86.6473 247.609 81.2697C244.994 75.8921 243.687 69.4855 243.687 62.0498C243.687 54.6141 245.06 48.2075 247.806 42.8299C250.617 37.4523 254.605 33.3029 259.769 30.3817C264.999 27.4606 271.275 26 278.597 26C283.631 26 288.011 26.7303 291.738 28.1909C295.464 29.5851 298.798 31.6432 301.74 34.3651L298.112 42.4315C296.02 40.639 293.993 39.2116 292.032 38.1494C290.07 37.0871 288.044 36.3237 285.952 35.8589C283.86 35.3278 281.408 35.0622 278.597 35.0622C270.687 35.0622 264.672 37.4191 260.554 42.1328C256.435 46.8465 254.376 53.5187 254.376 62.1494C254.376 70.9129 256.337 77.5851 260.26 82.166C264.247 86.7469 270.491 89.0373 278.989 89.0373C281.931 89.0373 284.84 88.7718 287.717 88.2407C290.593 87.6432 293.372 86.7801 296.052 85.6515L294.091 90.5311V67.527H277.028V59.7593H302.622V92.9212C299.615 94.4481 295.921 95.6763 291.541 96.6058C287.227 97.5353 282.912 98 278.597 98Z" fill="black"/>
<path d="M309.276 97.1037L340.068 26.8963H348.795L380.077 97.1037H369.584L361.053 77.1867L365.368 79.9751H323.495L328.104 77.1867L319.573 97.1037H309.276ZM344.284 38.249L329.379 74L327.025 71.7095H361.837L359.876 74L344.677 38.249H344.284Z" fill="black"/>
<path d="M387.499 97.1037V26.8963H416.722C424.109 26.8963 429.829 28.6888 433.883 32.2739C437.936 35.7925 439.962 40.7386 439.962 47.112C439.962 51.2946 439.047 54.8797 437.217 57.8672C435.386 60.8548 432.804 63.1452 429.47 64.7386C426.136 66.2656 422.213 67.029 417.702 67.029L419.271 65.4357H421.919C424.599 65.4357 426.986 66.1328 429.078 67.527C431.235 68.9212 433 71.1452 434.373 74.1992L444.277 97.1037H433.098L423.292 74.0996C422.311 71.3776 420.775 69.6183 418.683 68.8216C416.656 68.0249 414.139 67.6266 411.132 67.6266H397.698V97.1037H387.499ZM397.698 59.7593H415.055C419.958 59.7593 423.651 58.6971 426.136 56.5726C428.685 54.4481 429.96 51.3942 429.96 47.4108C429.96 43.361 428.685 40.3071 426.136 38.249C423.651 36.1909 419.958 35.1618 415.055 35.1618H397.698V59.7593Z" fill="black"/>
<path d="M454.159 97.1037V26.8963H462.004L504.464 83.4606H502.013V26.8963H511.525V97.1037H503.778L461.415 40.5394H463.671V97.1037H454.159Z" fill="black"/>
<path d="M525.989 97.1037V26.8963H571.294V35.1618H535.893V57.2697H569.039V65.6349H535.893V88.7386H571.294V97.1037H525.989Z" fill="black"/>
<path d="M597.921 97.1037V35.5602H574.288V26.8963H631.752V35.5602H608.119V97.1037H597.921Z" fill="black"/>
<path d="M664.008 97.1037V26.8963H674.206V88.2407H708.136V97.1037H664.008Z" fill="black"/>
<path d="M707.421 97.1037L738.212 26.8963H746.94L778.221 97.1037H767.729L759.197 77.1867L763.512 79.9751H721.64L726.248 77.1867L717.717 97.1037H707.421ZM742.429 38.249L727.523 74L725.17 71.7095H759.982L758.021 74L742.821 38.249H742.429Z" fill="black"/>
<path d="M785.644 97.1037V26.8963H793.489L835.95 83.4606H833.498V26.8963H843.01V97.1037H835.263L792.9 40.5394H795.156V97.1037H785.644Z" fill="black"/>
<path d="M857.474 97.1037V26.8963H902.779V35.1618H867.378V57.2697H900.523V65.6349H867.378V88.7386H902.779V97.1037H857.474Z" fill="black"/>
<path d="M913.695 97.1037V26.8963H959V35.1618H923.6V57.2697H956.745V65.6349H923.6V88.7386H959V97.1037H913.695Z" fill="black"/>
<path d="M266.562 147H258.259V120.091H266.93C269.541 120.091 271.774 120.63 273.631 121.707C275.488 122.776 276.912 124.313 277.902 126.319C278.891 128.316 279.386 130.707 279.386 133.493C279.386 136.296 278.887 138.709 277.888 140.733C276.89 142.747 275.436 144.298 273.526 145.384C271.617 146.461 269.295 147 266.562 147ZM261.517 144.109H266.352C268.577 144.109 270.421 143.68 271.884 142.822C273.347 141.963 274.437 140.741 275.156 139.156C275.874 137.57 276.233 135.683 276.233 133.493C276.233 131.321 275.878 129.45 275.169 127.882C274.459 126.306 273.399 125.097 271.989 124.256C270.579 123.406 268.822 122.982 266.72 122.982H261.517V144.109ZM290.371 147.473C289.092 147.473 287.931 147.232 286.889 146.75C285.846 146.26 285.019 145.555 284.406 144.635C283.792 143.706 283.486 142.585 283.486 141.271C283.486 140.115 283.714 139.178 284.169 138.46C284.625 137.732 285.233 137.163 285.995 136.751C286.757 136.34 287.598 136.033 288.518 135.832C289.447 135.621 290.379 135.455 291.317 135.332C292.543 135.175 293.537 135.056 294.299 134.978C295.07 134.89 295.631 134.746 295.981 134.544C296.34 134.343 296.52 133.992 296.52 133.493V133.388C296.52 132.091 296.165 131.084 295.456 130.366C294.755 129.647 293.691 129.288 292.263 129.288C290.782 129.288 289.622 129.612 288.781 130.261C287.94 130.909 287.349 131.601 287.007 132.337L284.064 131.286C284.589 130.059 285.29 129.104 286.166 128.421C287.051 127.729 288.014 127.247 289.057 126.976C290.108 126.696 291.142 126.555 292.158 126.555C292.806 126.555 293.55 126.634 294.391 126.792C295.241 126.941 296.06 127.252 296.848 127.725C297.645 128.198 298.307 128.912 298.832 129.866C299.358 130.821 299.621 132.1 299.621 133.703V147H296.52V144.267H296.362C296.152 144.705 295.802 145.174 295.311 145.673C294.821 146.172 294.168 146.597 293.353 146.947C292.539 147.298 291.545 147.473 290.371 147.473ZM290.844 144.688C292.07 144.688 293.104 144.447 293.945 143.965C294.794 143.483 295.434 142.861 295.863 142.099C296.301 141.337 296.52 140.536 296.52 139.695V136.857C296.388 137.014 296.099 137.159 295.653 137.29C295.215 137.413 294.707 137.522 294.129 137.619C293.559 137.706 293.003 137.785 292.46 137.855C291.926 137.916 291.492 137.969 291.159 138.013C290.353 138.118 289.6 138.289 288.899 138.525C288.207 138.753 287.647 139.099 287.217 139.563C286.797 140.019 286.587 140.641 286.587 141.429C286.587 142.506 286.985 143.321 287.782 143.873C288.588 144.416 289.609 144.688 290.844 144.688ZM304.702 147V144.635L316.16 129.919V129.709H305.07V126.818H320.154V129.288L309.012 143.899V144.109H320.522V147H304.702ZM324.72 147V144.635L336.177 129.919V129.709H325.088V126.818H340.172V129.288L329.03 143.899V144.109H340.54V147H324.72ZM348.416 120.091V147H345.316V120.091H348.416ZM354.096 147V126.818H357.197V147H354.096ZM355.673 123.455C355.068 123.455 354.547 123.249 354.109 122.837C353.68 122.425 353.465 121.93 353.465 121.352C353.465 120.774 353.68 120.279 354.109 119.868C354.547 119.456 355.068 119.25 355.673 119.25C356.277 119.25 356.794 119.456 357.223 119.868C357.661 120.279 357.88 120.774 357.88 121.352C357.88 121.93 357.661 122.425 357.223 122.837C356.794 123.249 356.277 123.455 355.673 123.455ZM365.977 134.859V147H362.876V126.818H365.872V129.972H366.135C366.608 128.947 367.326 128.123 368.29 127.501C369.253 126.871 370.497 126.555 372.021 126.555C373.388 126.555 374.583 126.836 375.608 127.396C376.633 127.948 377.43 128.789 377.999 129.919C378.569 131.04 378.853 132.459 378.853 134.176V147H375.753V134.386C375.753 132.801 375.341 131.566 374.517 130.681C373.694 129.788 372.564 129.341 371.128 129.341C370.138 129.341 369.253 129.556 368.473 129.985C367.703 130.414 367.094 131.04 366.647 131.864C366.2 132.687 365.977 133.686 365.977 134.859ZM392.666 154.989C391.168 154.989 389.881 154.796 388.803 154.411C387.726 154.034 386.828 153.535 386.11 152.913C385.4 152.299 384.835 151.643 384.415 150.942L386.885 149.207C387.165 149.575 387.52 149.996 387.949 150.469C388.378 150.951 388.965 151.367 389.71 151.717C390.463 152.076 391.448 152.256 392.666 152.256C394.295 152.256 395.64 151.862 396.7 151.073C397.76 150.285 398.29 149.05 398.29 147.368V143.268H398.027C397.799 143.636 397.475 144.092 397.055 144.635C396.643 145.169 396.047 145.647 395.268 146.067C394.497 146.479 393.454 146.685 392.14 146.685C390.511 146.685 389.048 146.299 387.752 145.528C386.464 144.758 385.444 143.636 384.691 142.165C383.946 140.693 383.574 138.906 383.574 136.804C383.574 134.737 383.937 132.937 384.664 131.404C385.391 129.862 386.403 128.671 387.699 127.83C388.996 126.98 390.494 126.555 392.193 126.555C393.507 126.555 394.549 126.774 395.32 127.212C396.1 127.642 396.695 128.132 397.107 128.684C397.528 129.227 397.852 129.674 398.079 130.024H398.395V126.818H401.39V147.578C401.39 149.312 400.996 150.723 400.208 151.809C399.428 152.904 398.377 153.705 397.055 154.213C395.741 154.73 394.278 154.989 392.666 154.989ZM392.561 143.899C393.805 143.899 394.856 143.614 395.714 143.045C396.573 142.476 397.225 141.657 397.672 140.588C398.119 139.519 398.342 138.241 398.342 136.751C398.342 135.297 398.123 134.014 397.685 132.902C397.247 131.789 396.599 130.918 395.741 130.287C394.882 129.656 393.822 129.341 392.561 129.341C391.247 129.341 390.152 129.674 389.276 130.339C388.409 131.005 387.756 131.899 387.318 133.02C386.889 134.141 386.675 135.385 386.675 136.751C386.675 138.153 386.894 139.392 387.331 140.47C387.778 141.538 388.435 142.379 389.302 142.993C390.178 143.597 391.265 143.899 392.561 143.899ZM419.47 154.568C418.944 154.568 418.476 154.524 418.064 154.437C417.652 154.358 417.368 154.279 417.21 154.2L417.998 151.467C418.752 151.66 419.417 151.73 419.996 151.678C420.574 151.625 421.086 151.367 421.533 150.902C421.988 150.447 422.404 149.707 422.781 148.682L423.359 147.105L415.896 126.818H419.26L424.831 142.901H425.041L430.612 126.818H433.976L425.409 149.943C425.023 150.986 424.546 151.848 423.977 152.532C423.407 153.224 422.746 153.736 421.993 154.069C421.248 154.402 420.407 154.568 419.47 154.568ZM445.545 147.42C443.723 147.42 442.124 146.987 440.749 146.12C439.382 145.252 438.314 144.039 437.543 142.48C436.781 140.921 436.4 139.099 436.4 137.014C436.4 134.912 436.781 133.077 437.543 131.509C438.314 129.941 439.382 128.723 440.749 127.856C442.124 126.989 443.723 126.555 445.545 126.555C447.367 126.555 448.961 126.989 450.327 127.856C451.703 128.723 452.771 129.941 453.533 131.509C454.304 133.077 454.69 134.912 454.69 137.014C454.69 139.099 454.304 140.921 453.533 142.48C452.771 144.039 451.703 145.252 450.327 146.12C448.961 146.987 447.367 147.42 445.545 147.42ZM445.545 144.635C446.929 144.635 448.067 144.28 448.961 143.571C449.854 142.861 450.516 141.928 450.945 140.772C451.374 139.616 451.589 138.363 451.589 137.014C451.589 135.665 451.374 134.408 450.945 133.243C450.516 132.078 449.854 131.137 448.961 130.418C448.067 129.7 446.929 129.341 445.545 129.341C444.161 129.341 443.022 129.7 442.129 130.418C441.235 131.137 440.574 132.078 440.145 133.243C439.715 134.408 439.501 135.665 439.501 137.014C439.501 138.363 439.715 139.616 440.145 140.772C440.574 141.928 441.235 142.861 442.129 143.571C443.022 144.28 444.161 144.635 445.545 144.635ZM472.142 138.749V126.818H475.243V147H472.142V143.584H471.932C471.459 144.609 470.723 145.48 469.724 146.199C468.726 146.908 467.464 147.263 465.94 147.263C464.679 147.263 463.557 146.987 462.576 146.435C461.595 145.874 460.825 145.033 460.264 143.912C459.703 142.782 459.423 141.359 459.423 139.642V126.818H462.524V139.432C462.524 140.903 462.936 142.077 463.759 142.953C464.591 143.829 465.651 144.267 466.939 144.267C467.709 144.267 468.493 144.07 469.291 143.676C470.096 143.282 470.771 142.677 471.314 141.863C471.866 141.048 472.142 140.01 472.142 138.749ZM490.277 122.982V120.091H510.459V122.982H501.997V147H498.739V122.982H490.277ZM520.34 147.42C518.518 147.42 516.919 146.987 515.544 146.12C514.177 145.252 513.109 144.039 512.338 142.48C511.576 140.921 511.195 139.099 511.195 137.014C511.195 134.912 511.576 133.077 512.338 131.509C513.109 129.941 514.177 128.723 515.544 127.856C516.919 126.989 518.518 126.555 520.34 126.555C522.162 126.555 523.756 126.989 525.122 127.856C526.498 128.723 527.566 129.941 528.328 131.509C529.099 133.077 529.485 134.912 529.485 137.014C529.485 139.099 529.099 140.921 528.328 142.48C527.566 144.039 526.498 145.252 525.122 146.12C523.756 146.987 522.162 147.42 520.34 147.42ZM520.34 144.635C521.724 144.635 522.862 144.28 523.756 143.571C524.649 142.861 525.311 141.928 525.74 140.772C526.169 139.616 526.384 138.363 526.384 137.014C526.384 135.665 526.169 134.408 525.74 133.243C525.311 132.078 524.649 131.137 523.756 130.418C522.862 129.7 521.724 129.341 520.34 129.341C518.956 129.341 517.817 129.7 516.923 130.418C516.03 131.137 515.369 132.078 514.939 133.243C514.51 134.408 514.296 135.665 514.296 137.014C514.296 138.363 514.51 139.616 514.939 140.772C515.369 141.928 516.03 142.861 516.923 143.571C517.817 144.28 518.956 144.635 520.34 144.635ZM541.839 147.42C540.157 147.42 538.672 146.996 537.384 146.146C536.097 145.288 535.09 144.079 534.362 142.52C533.635 140.952 533.272 139.099 533.272 136.962C533.272 134.842 533.635 133.002 534.362 131.443C535.09 129.884 536.101 128.68 537.398 127.83C538.694 126.98 540.192 126.555 541.891 126.555C543.205 126.555 544.243 126.774 545.005 127.212C545.776 127.642 546.363 128.132 546.766 128.684C547.178 129.227 547.497 129.674 547.725 130.024H547.988V120.091H551.089V147H548.093V143.899H547.725C547.497 144.267 547.173 144.731 546.753 145.292C546.332 145.844 545.732 146.339 544.953 146.777C544.173 147.206 543.135 147.42 541.839 147.42ZM542.259 144.635C543.503 144.635 544.554 144.311 545.413 143.663C546.271 143.006 546.924 142.099 547.37 140.943C547.817 139.778 548.04 138.433 548.04 136.909C548.04 135.402 547.821 134.084 547.383 132.954C546.945 131.815 546.297 130.931 545.439 130.3C544.58 129.661 543.521 129.341 542.259 129.341C540.945 129.341 539.85 129.678 538.974 130.353C538.107 131.018 537.455 131.925 537.017 133.072C536.587 134.211 536.373 135.49 536.373 136.909C536.373 138.346 536.592 139.651 537.03 140.825C537.476 141.99 538.133 142.918 539.001 143.61C539.877 144.293 540.963 144.635 542.259 144.635ZM563.137 147.473C561.858 147.473 560.698 147.232 559.655 146.75C558.613 146.26 557.785 145.555 557.172 144.635C556.559 143.706 556.252 142.585 556.252 141.271C556.252 140.115 556.48 139.178 556.936 138.46C557.391 137.732 558 137.163 558.762 136.751C559.524 136.34 560.365 136.033 561.285 135.832C562.213 135.621 563.146 135.455 564.083 135.332C565.31 135.175 566.304 135.056 567.066 134.978C567.837 134.89 568.397 134.746 568.748 134.544C569.107 134.343 569.286 133.992 569.286 133.493V133.388C569.286 132.091 568.932 131.084 568.222 130.366C567.521 129.647 566.457 129.288 565.029 129.288C563.549 129.288 562.388 129.612 561.547 130.261C560.707 130.909 560.115 131.601 559.774 132.337L556.831 131.286C557.356 130.059 558.057 129.104 558.933 128.421C559.818 127.729 560.781 127.247 561.823 126.976C562.875 126.696 563.908 126.555 564.924 126.555C565.572 126.555 566.317 126.634 567.158 126.792C568.008 126.941 568.827 127.252 569.615 127.725C570.412 128.198 571.073 128.912 571.599 129.866C572.125 130.821 572.387 132.1 572.387 133.703V147H569.286V144.267H569.129C568.919 144.705 568.568 145.174 568.078 145.673C567.587 146.172 566.935 146.597 566.12 146.947C565.305 147.298 564.311 147.473 563.137 147.473ZM563.61 144.688C564.837 144.688 565.87 144.447 566.711 143.965C567.561 143.483 568.2 142.861 568.63 142.099C569.068 141.337 569.286 140.536 569.286 139.695V136.857C569.155 137.014 568.866 137.159 568.419 137.29C567.981 137.413 567.473 137.522 566.895 137.619C566.326 137.706 565.77 137.785 565.226 137.855C564.692 137.916 564.259 137.969 563.926 138.013C563.12 138.118 562.367 138.289 561.666 138.525C560.974 138.753 560.413 139.099 559.984 139.563C559.563 140.019 559.353 140.641 559.353 141.429C559.353 142.506 559.752 143.321 560.549 143.873C561.355 144.416 562.375 144.688 563.61 144.688ZM579.322 154.568C578.796 154.568 578.327 154.524 577.916 154.437C577.504 154.358 577.219 154.279 577.062 154.2L577.85 151.467C578.603 151.66 579.269 151.73 579.847 151.678C580.425 151.625 580.938 151.367 581.384 150.902C581.84 150.447 582.256 149.707 582.633 148.682L583.211 147.105L575.748 126.818H579.111L584.682 142.901H584.893L590.464 126.818H593.827L585.26 149.943C584.875 150.986 584.398 151.848 583.828 152.532C583.259 153.224 582.598 153.736 581.844 154.069C581.1 154.402 580.259 154.568 579.322 154.568ZM601.28 143.321L601.07 144.74C600.921 145.739 600.694 146.807 600.387 147.946C600.089 149.085 599.778 150.158 599.454 151.165C599.13 152.172 598.863 152.974 598.653 153.57H596.288C596.401 153.009 596.55 152.269 596.734 151.349C596.918 150.429 597.102 149.4 597.286 148.261C597.479 147.131 597.637 145.975 597.759 144.793L597.917 143.321H601.28ZM616.381 122.982V120.091H636.562V122.982H628.101V147H624.842V122.982H616.381ZM646.443 147.42C644.621 147.42 643.023 146.987 641.647 146.12C640.281 145.252 639.212 144.039 638.441 142.48C637.679 140.921 637.298 139.099 637.298 137.014C637.298 134.912 637.679 133.077 638.441 131.509C639.212 129.941 640.281 128.723 641.647 127.856C643.023 126.989 644.621 126.555 646.443 126.555C648.265 126.555 649.859 126.989 651.226 127.856C652.601 128.723 653.67 129.941 654.432 131.509C655.203 133.077 655.588 134.912 655.588 137.014C655.588 139.099 655.203 140.921 654.432 142.48C653.67 144.039 652.601 145.252 651.226 146.12C649.859 146.987 648.265 147.42 646.443 147.42ZM646.443 144.635C647.827 144.635 648.966 144.28 649.859 143.571C650.753 142.861 651.414 141.928 651.843 140.772C652.273 139.616 652.487 138.363 652.487 137.014C652.487 135.665 652.273 134.408 651.843 133.243C651.414 132.078 650.753 131.137 649.859 130.418C648.966 129.7 647.827 129.341 646.443 129.341C645.059 129.341 643.92 129.7 643.027 130.418C642.134 131.137 641.472 132.078 641.043 133.243C640.614 134.408 640.399 135.665 640.399 137.014C640.399 138.363 640.614 139.616 641.043 140.772C641.472 141.928 642.134 142.861 643.027 143.571C643.92 144.28 645.059 144.635 646.443 144.635ZM660.321 147V126.818H663.317V129.972H663.58C664 128.894 664.679 128.058 665.617 127.462C666.554 126.858 667.679 126.555 668.993 126.555C670.325 126.555 671.433 126.858 672.318 127.462C673.211 128.058 673.907 128.894 674.407 129.972H674.617C675.134 128.929 675.909 128.101 676.943 127.488C677.976 126.866 679.216 126.555 680.661 126.555C682.465 126.555 683.941 127.12 685.089 128.25C686.236 129.372 686.81 131.119 686.81 133.493V147H683.709V133.493C683.709 132.004 683.302 130.94 682.487 130.3C681.673 129.661 680.714 129.341 679.61 129.341C678.191 129.341 677.091 129.77 676.312 130.629C675.532 131.478 675.142 132.556 675.142 133.861V147H671.989V133.178C671.989 132.03 671.617 131.106 670.872 130.405C670.128 129.696 669.169 129.341 667.995 129.341C667.189 129.341 666.436 129.556 665.735 129.985C665.043 130.414 664.482 131.01 664.053 131.772C663.633 132.525 663.422 133.397 663.422 134.386V147H660.321ZM700.679 147.42C698.857 147.42 697.258 146.987 695.883 146.12C694.516 145.252 693.448 144.039 692.677 142.48C691.915 140.921 691.534 139.099 691.534 137.014C691.534 134.912 691.915 133.077 692.677 131.509C693.448 129.941 694.516 128.723 695.883 127.856C697.258 126.989 698.857 126.555 700.679 126.555C702.501 126.555 704.095 126.989 705.461 127.856C706.836 128.723 707.905 129.941 708.667 131.509C709.438 133.077 709.823 134.912 709.823 137.014C709.823 139.099 709.438 140.921 708.667 142.48C707.905 144.039 706.836 145.252 705.461 146.12C704.095 146.987 702.501 147.42 700.679 147.42ZM700.679 144.635C702.063 144.635 703.201 144.28 704.095 143.571C704.988 142.861 705.65 141.928 706.079 140.772C706.508 139.616 706.723 138.363 706.723 137.014C706.723 135.665 706.508 134.408 706.079 133.243C705.65 132.078 704.988 131.137 704.095 130.418C703.201 129.7 702.063 129.341 700.679 129.341C699.295 129.341 698.156 129.7 697.262 130.418C696.369 131.137 695.708 132.078 695.278 133.243C694.849 134.408 694.634 135.665 694.634 137.014C694.634 138.363 694.849 139.616 695.278 140.772C695.708 141.928 696.369 142.861 697.262 143.571C698.156 144.28 699.295 144.635 700.679 144.635ZM714.557 147V126.818H717.553V129.866H717.763C718.131 128.868 718.796 128.058 719.76 127.436C720.723 126.814 721.81 126.503 723.018 126.503C723.246 126.503 723.531 126.507 723.873 126.516C724.214 126.525 724.473 126.538 724.648 126.555V129.709C724.543 129.683 724.302 129.643 723.925 129.591C723.557 129.529 723.167 129.499 722.756 129.499C721.775 129.499 720.899 129.704 720.128 130.116C719.366 130.519 718.761 131.08 718.315 131.798C717.877 132.507 717.658 133.318 717.658 134.229V147H714.557ZM728.323 147V126.818H731.319V129.866H731.529C731.897 128.868 732.563 128.058 733.527 127.436C734.49 126.814 735.576 126.503 736.785 126.503C737.013 126.503 737.297 126.507 737.639 126.516C737.981 126.525 738.239 126.538 738.414 126.555V129.709C738.309 129.683 738.068 129.643 737.692 129.591C737.324 129.529 736.934 129.499 736.522 129.499C735.541 129.499 734.665 129.704 733.894 130.116C733.132 130.519 732.528 131.08 732.081 131.798C731.643 132.507 731.424 133.318 731.424 134.229V147H728.323ZM749.675 147.42C747.853 147.42 746.254 146.987 744.879 146.12C743.512 145.252 742.444 144.039 741.673 142.48C740.911 140.921 740.53 139.099 740.53 137.014C740.53 134.912 740.911 133.077 741.673 131.509C742.444 129.941 743.512 128.723 744.879 127.856C746.254 126.989 747.853 126.555 749.675 126.555C751.497 126.555 753.091 126.989 754.457 127.856C755.833 128.723 756.901 129.941 757.663 131.509C758.434 133.077 758.82 134.912 758.82 137.014C758.82 139.099 758.434 140.921 757.663 142.48C756.901 144.039 755.833 145.252 754.457 146.12C753.091 146.987 751.497 147.42 749.675 147.42ZM749.675 144.635C751.059 144.635 752.197 144.28 753.091 143.571C753.984 142.861 754.646 141.928 755.075 140.772C755.504 139.616 755.719 138.363 755.719 137.014C755.719 135.665 755.504 134.408 755.075 133.243C754.646 132.078 753.984 131.137 753.091 130.418C752.197 129.7 751.059 129.341 749.675 129.341C748.291 129.341 747.152 129.7 746.258 130.418C745.365 131.137 744.704 132.078 744.274 133.243C743.845 134.408 743.631 135.665 743.631 137.014C743.631 138.363 743.845 139.616 744.274 140.772C744.704 141.928 745.365 142.861 746.258 143.571C747.152 144.28 748.291 144.635 749.675 144.635ZM767.439 147L761.29 126.818H764.548L768.91 142.27H769.121L773.43 126.818H776.741L780.998 142.217H781.209L785.571 126.818H788.829L782.68 147H779.632L775.217 131.496H774.902L770.487 147H767.439ZM810.956 147.368C809.186 147.368 807.662 147.044 806.383 146.396C805.105 145.747 804.119 144.858 803.427 143.728C802.735 142.598 802.389 141.306 802.389 139.852C802.389 138.731 802.626 137.737 803.099 136.87C803.58 135.994 804.242 135.183 805.083 134.439C805.932 133.686 806.909 132.932 808.013 132.179L811.902 129.288C812.664 128.789 813.273 128.255 813.728 127.685C814.193 127.116 814.425 126.371 814.425 125.452C814.425 124.768 814.122 124.107 813.518 123.468C812.922 122.828 812.138 122.509 811.166 122.509C810.483 122.509 809.878 122.684 809.353 123.034C808.836 123.376 808.429 123.814 808.131 124.348C807.842 124.874 807.697 125.417 807.697 125.977C807.697 126.608 807.868 127.247 808.21 127.896C808.56 128.535 809.003 129.192 809.537 129.866C810.08 130.532 810.641 131.215 811.219 131.916L823.57 147H819.838L809.642 134.702C808.696 133.563 807.838 132.529 807.067 131.601C806.296 130.672 805.683 129.757 805.227 128.855C804.772 127.953 804.544 126.976 804.544 125.925C804.544 124.716 804.811 123.656 805.345 122.745C805.889 121.825 806.646 121.111 807.619 120.603C808.6 120.087 809.747 119.828 811.061 119.828C812.41 119.828 813.571 120.091 814.543 120.616C815.515 121.133 816.264 121.821 816.79 122.679C817.315 123.529 817.578 124.453 817.578 125.452C817.578 126.739 817.258 127.856 816.619 128.802C815.979 129.748 815.108 130.629 814.004 131.443L808.643 135.438C807.435 136.331 806.616 137.198 806.186 138.039C805.757 138.88 805.543 139.484 805.543 139.852C805.543 140.693 805.762 141.477 806.199 142.204C806.637 142.931 807.255 143.518 808.052 143.965C808.849 144.412 809.782 144.635 810.851 144.635C811.867 144.635 812.857 144.42 813.82 143.991C814.784 143.553 815.655 142.922 816.435 142.099C817.223 141.276 817.845 140.286 818.301 139.13C818.765 137.973 818.997 136.673 818.997 135.227H821.993C821.993 137.014 821.787 138.473 821.375 139.603C820.964 140.733 820.499 141.617 819.983 142.257C819.466 142.896 819.05 143.374 818.734 143.689C818.629 143.82 818.533 143.952 818.445 144.083C818.358 144.214 818.261 144.346 818.156 144.477C817.289 145.45 816.194 146.177 814.871 146.658C813.549 147.131 812.244 147.368 810.956 147.368ZM837.829 147V120.091H853.964V122.982H841.087V132.074H852.755V134.964H841.087V147H837.829ZM865.842 147.42C864.02 147.42 862.421 146.987 861.046 146.12C859.679 145.252 858.611 144.039 857.84 142.48C857.078 140.921 856.697 139.099 856.697 137.014C856.697 134.912 857.078 133.077 857.84 131.509C858.611 129.941 859.679 128.723 861.046 127.856C862.421 126.989 864.02 126.555 865.842 126.555C867.664 126.555 869.258 126.989 870.624 127.856C872 128.723 873.068 129.941 873.83 131.509C874.601 133.077 874.987 134.912 874.987 137.014C874.987 139.099 874.601 140.921 873.83 142.48C873.068 144.039 872 145.252 870.624 146.12C869.258 146.987 867.664 147.42 865.842 147.42ZM865.842 144.635C867.226 144.635 868.364 144.28 869.258 143.571C870.151 142.861 870.813 141.928 871.242 140.772C871.671 139.616 871.886 138.363 871.886 137.014C871.886 135.665 871.671 134.408 871.242 133.243C870.813 132.078 870.151 131.137 869.258 130.418C868.364 129.7 867.226 129.341 865.842 129.341C864.458 129.341 863.319 129.7 862.425 130.418C861.532 131.137 860.871 132.078 860.441 133.243C860.012 134.408 859.798 135.665 859.798 137.014C859.798 138.363 860.012 139.616 860.441 140.772C860.871 141.928 861.532 142.861 862.425 143.571C863.319 144.28 864.458 144.635 865.842 144.635ZM879.72 147V126.818H882.716V129.866H882.926C883.294 128.868 883.959 128.058 884.923 127.436C885.887 126.814 886.973 126.503 888.182 126.503C888.409 126.503 888.694 126.507 889.036 126.516C889.377 126.525 889.636 126.538 889.811 126.555V129.709C889.706 129.683 889.465 129.643 889.088 129.591C888.72 129.529 888.33 129.499 887.919 129.499C886.938 129.499 886.062 129.704 885.291 130.116C884.529 130.519 883.924 131.08 883.478 131.798C883.04 132.507 882.821 133.318 882.821 134.229V147H879.72ZM901.334 147.42C899.389 147.42 897.712 146.991 896.302 146.133C894.9 145.266 893.818 144.057 893.056 142.506C892.303 140.947 891.926 139.134 891.926 137.067C891.926 135 892.303 133.178 893.056 131.601C893.818 130.015 894.878 128.78 896.236 127.896C897.602 127.002 899.197 126.555 901.019 126.555C902.07 126.555 903.108 126.731 904.133 127.081C905.157 127.431 906.09 128.001 906.931 128.789C907.772 129.569 908.442 130.602 908.941 131.89C909.441 133.178 909.69 134.763 909.69 136.646V137.96H894.134V135.28H906.537C906.537 134.141 906.309 133.125 905.854 132.232C905.407 131.338 904.768 130.633 903.935 130.116C903.112 129.599 902.14 129.341 901.019 129.341C899.783 129.341 898.715 129.647 897.813 130.261C896.919 130.865 896.232 131.653 895.75 132.626C895.268 133.598 895.027 134.64 895.027 135.753V137.54C895.027 139.064 895.29 140.356 895.815 141.416C896.35 142.467 897.09 143.268 898.036 143.82C898.982 144.363 900.081 144.635 901.334 144.635C902.149 144.635 902.884 144.521 903.541 144.293C904.207 144.057 904.781 143.706 905.263 143.242C905.744 142.769 906.117 142.182 906.379 141.482L909.375 142.322C909.06 143.339 908.53 144.232 907.785 145.003C907.041 145.765 906.121 146.361 905.026 146.79C903.931 147.21 902.7 147.42 901.334 147.42ZM930.296 126.818L922.833 147H919.68L912.216 126.818H915.58L921.151 142.901H921.361L926.932 126.818H930.296ZM942.128 147.42C940.183 147.42 938.506 146.991 937.096 146.133C935.694 145.266 934.612 144.057 933.85 142.506C933.097 140.947 932.72 139.134 932.72 137.067C932.72 135 933.097 133.178 933.85 131.601C934.612 130.015 935.672 128.78 937.03 127.896C938.396 127.002 939.991 126.555 941.812 126.555C942.864 126.555 943.902 126.731 944.926 127.081C945.951 127.431 946.884 128.001 947.725 128.789C948.566 129.569 949.236 130.602 949.735 131.89C950.235 133.178 950.484 134.763 950.484 136.646V137.96H934.928V135.28H947.331C947.331 134.141 947.103 133.125 946.648 132.232C946.201 131.338 945.562 130.633 944.729 130.116C943.906 129.599 942.934 129.341 941.812 129.341C940.577 129.341 939.509 129.647 938.607 130.261C937.713 130.865 937.025 131.653 936.544 132.626C936.062 133.598 935.821 134.64 935.821 135.753V137.54C935.821 139.064 936.084 140.356 936.609 141.416C937.144 142.467 937.884 143.268 938.83 143.82C939.776 144.363 940.875 144.635 942.128 144.635C942.942 144.635 943.678 144.521 944.335 144.293C945.001 144.057 945.575 143.706 946.056 143.242C946.538 142.769 946.911 142.182 947.173 141.482L950.169 142.322C949.854 143.339 949.324 144.232 948.579 145.003C947.835 145.765 946.915 146.361 945.82 146.79C944.725 147.21 943.494 147.42 942.128 147.42ZM955.201 147V126.818H958.197V129.866H958.407C958.775 128.868 959.441 128.058 960.404 127.436C961.368 126.814 962.454 126.503 963.663 126.503C963.891 126.503 964.175 126.507 964.517 126.516C964.859 126.525 965.117 126.538 965.292 126.555V129.709C965.187 129.683 964.946 129.643 964.57 129.591C964.202 129.529 963.812 129.499 963.4 129.499C962.419 129.499 961.543 129.704 960.772 130.116C960.01 130.519 959.406 131.08 958.959 131.798C958.521 132.507 958.302 133.318 958.302 134.229V147H955.201Z" fill="black"/>
<defs>
<linearGradient id="paint0_linear_9536_13" x1="115.552" y1="54.5926" x2="115.552" y2="122.926" gradientUnits="userSpaceOnUse">
<stop stop-color="#FD9149"/>
<stop offset="1" stop-color="#FD9149" stop-opacity="0"/>
</linearGradient>
</defs>
</svg>
