<svg width="578" height="159" viewBox="0 0 578 159" fill="none" xmlns="http://www.w3.org/2000/svg">
<rect x="562.355" y="0" width="15.5635" height="130.462" fill="#FFD588"/>
<rect x="562.355" y="0" width="15.5635" height="130.462" fill="url(#paint0_linear_5300_2533)"/>
<rect x="38.6436" y="0.17041" width="255.241" height="135.143" fill="url(#paint1_linear_5300_2533)"/>
<path d="M78.8082 17.5982C75.338 18.2297 72.9603 19.6575 71.7393 21.7993C71.2252 22.6505 71.1288 23.5017 71.1288 27.1537C71.1288 31.4098 71.1609 31.5196 71.8999 32.0413C72.6068 32.5356 73.4744 32.563 95.3557 32.563C117.494 32.563 118.073 32.5905 119.486 33.1397C122.635 34.3478 123.985 36.3798 123.985 39.867C123.985 41.7891 123.856 42.3108 123.117 43.5464C121.993 45.3312 120.193 46.457 117.912 46.8415C116.852 47.0062 107.662 47.116 94.1026 47.116C69.0724 47.116 71.2573 46.8964 71.0324 49.5324C70.936 50.8229 71.0324 51.2348 71.5786 51.8389L72.2855 52.5803L88.4154 52.6627C103.324 52.745 104.642 52.7725 105.927 53.2667C107.694 53.9258 109.654 55.8478 110.168 57.413C110.747 59.1429 110.457 62.3281 109.59 63.7834C108.754 65.1563 106.891 66.5292 105.349 66.8862C104.706 67.0509 97.8941 67.1607 89.0259 67.1607C72.3819 67.1607 71.9321 67.1882 71.2573 68.7259C71.0324 69.2201 70.9681 72.3779 71.0324 77.8696C71.1609 87.2329 71.1931 87.48 73.4744 89.512C75.2095 91.0496 76.9124 91.6263 80.4469 91.791C84.656 92.0107 85.0095 91.9009 85.2665 90.2808C85.9413 85.6129 87.3229 82.9219 90.4075 80.0937C92.6888 78.0343 95.5485 76.4692 98.601 75.6454C101.525 74.8217 106.602 74.8217 109.526 75.6454C115.984 77.4028 121.318 82.4277 122.378 87.7546C122.603 88.7431 122.86 90.0337 122.956 90.6378L123.181 91.7361L141.946 91.8185C155.538 91.8459 160.839 91.791 161.128 91.5714C161.385 91.3791 161.578 90.7201 161.578 89.9788C161.578 86.6288 163.635 82.7023 166.88 79.9015C170.8 76.5241 174.688 75.0688 180.054 75.0413C185.42 75.0139 189.822 76.5241 193.517 79.6818C196.633 82.3453 198.304 85.3657 199.011 89.5394L199.365 91.7361H205.148C210.643 91.7361 210.964 91.7086 212.474 91.0496C214.434 90.1984 216.008 88.6333 216.715 86.876C217.165 85.7227 217.197 84.2949 217.101 76.0024C216.94 65.5682 216.747 64.2501 214.98 62.0809C213.791 60.6256 212.635 60.1039 208.072 59.0056C203.317 57.8523 201.1 57.0011 199.846 55.738C199.3 55.2163 196.987 51.6192 194.673 47.7201C192.392 43.8485 190.175 40.3612 189.789 39.9768C188.408 38.6863 186.094 37.231 184.199 36.4896C182.367 35.7757 182.046 35.7482 175.652 35.5835C172.021 35.5011 168.904 35.3363 168.743 35.2265C168.615 35.0892 168.422 32.0139 168.326 28.3619L168.165 21.7169L167.265 20.4264C166.237 18.9162 164.984 18.0924 162.96 17.5707C160.807 17.0215 81.7642 17.049 78.8082 17.5982ZM181.275 41.5694C184.97 43.1346 185.998 44.2604 190.271 51.6192C192.36 55.2163 193.999 58.2367 193.87 58.3191C193.742 58.4289 188.086 58.5113 181.307 58.5113C170.671 58.5113 168.904 58.4564 168.647 58.0994C168.294 57.6052 168.197 40.9928 168.551 40.6908C168.679 40.5809 171.121 40.526 173.949 40.5809C179.058 40.6633 179.122 40.6633 181.275 41.5694Z" fill="#FFF0D8"/>
<path d="M64.9582 35.7754C64.5404 35.8303 63.8014 36.2697 63.2552 36.709C62.3555 37.5053 62.2913 37.6701 62.2913 39.7295C62.2913 41.7339 62.3555 41.9536 63.2231 42.7774L64.1549 43.6835L91.0487 43.7659L117.943 43.8208L119.003 42.9147C121.573 40.718 120.481 36.3246 117.204 35.7479C116.079 35.5557 66.1149 35.5832 64.9582 35.7754Z" fill="#FFF0D8"/>
<path d="M54.6772 56.3416C53.1991 56.9732 52.5565 58.3187 52.7172 60.4605C52.8136 61.6688 53.0385 62.3552 53.4562 62.7946C54.9021 64.1676 54.5808 64.1401 79.4182 64.1401C92.2386 64.1401 103.163 64.0577 103.709 63.9753C104.288 63.8655 105.155 63.4262 105.702 62.9868C106.569 62.2179 106.633 62.0257 106.633 60.0486C106.633 57.7146 106.248 57.0007 104.705 56.3142C103.902 55.9572 100.432 55.9023 79.7395 55.9023C58.5651 55.9023 55.5769 55.9572 54.6772 56.3416Z" fill="#FFF0D8"/>
<path d="M100.367 79.1862C97.6361 79.8452 95.8368 80.7239 93.8768 82.4263C90.7279 85.1173 89.1535 89.2086 89.8604 92.8605C91.1777 99.5878 98.4715 104.201 106.183 103.157C113.991 102.141 119.517 95.7437 118.264 89.236C116.851 81.9046 108.529 77.2367 100.367 79.1862ZM106.504 86.1332C107.982 86.5176 109.557 88.0553 110.007 89.6204C111.067 93.1076 108.272 96.2654 104.062 96.2654C98.5358 96.2654 95.7725 90.6089 99.6604 87.2865C101.428 85.7763 103.645 85.3918 106.504 86.1332Z" fill="#FFF0D8"/>
<path d="M177.386 78.9951C173.852 79.5717 170.414 81.5762 168.358 84.2122C162.574 91.6259 167.683 101.648 178.029 103.158C185.098 104.174 192.36 100.138 194.191 94.207C196.858 85.3929 187.861 77.2378 177.386 78.9951ZM183.138 86.2715C184.423 86.8207 185.933 88.4407 186.319 89.7038C186.994 91.8456 186.126 93.8775 183.877 95.3328C182.913 95.9643 182.303 96.129 180.567 96.2114C178.672 96.2938 178.286 96.2114 176.969 95.4975C172.438 92.9988 173.595 86.9031 178.8 85.8597C180.214 85.5851 181.917 85.7224 183.138 86.2715Z" fill="#FFF0D8"/>
<path d="M103.789 60.4564C102.11 60.7721 100.959 61.486 100.368 62.5569C100.119 62.9825 100.073 63.4081 100.073 65.2341C100.073 67.3622 100.088 67.4171 100.446 67.6779C100.788 67.9251 101.208 67.9388 111.796 67.9388C122.508 67.9388 122.788 67.9525 123.472 68.2271C124.995 68.8312 125.648 69.8471 125.648 71.5908C125.648 72.5518 125.586 72.8127 125.228 73.4305C124.684 74.3229 123.814 74.8858 122.71 75.078C122.197 75.1604 117.75 75.2153 111.189 75.2153C99.0778 75.2153 100.135 75.1054 100.026 76.4235C99.9795 77.0687 100.026 77.2747 100.29 77.5767L100.633 77.9474L108.437 77.9886C115.651 78.0298 116.289 78.0435 116.911 78.2906C117.766 78.6201 118.714 79.5812 118.963 80.3637C119.243 81.2287 119.103 82.8213 118.683 83.5489C118.279 84.2354 117.377 84.9218 116.631 85.1003C116.32 85.1827 113.024 85.2376 108.733 85.2376C100.679 85.2376 100.461 85.2513 100.135 86.0202C100.026 86.2673 99.9951 87.8462 100.026 90.592C100.088 95.2737 100.104 95.3972 101.208 96.4132C102.047 97.182 102.871 97.4704 104.582 97.5527C106.618 97.6626 106.789 97.6077 106.914 96.7976C107.24 94.4637 107.909 93.1182 109.401 91.7041C110.505 90.6744 111.889 89.8918 113.366 89.4799C114.781 89.0681 117.237 89.0681 118.652 89.4799C121.777 90.3586 124.358 92.8711 124.871 95.5345C124.98 96.0288 125.104 96.6741 125.151 96.9761L125.26 97.5253L134.339 97.5665C140.916 97.5802 143.481 97.5527 143.621 97.4429C143.745 97.3468 143.839 97.0173 143.839 96.6466C143.839 94.9716 144.834 93.0084 146.404 91.608C148.301 89.9193 150.182 89.1916 152.778 89.1779C155.375 89.1642 157.505 89.9193 159.293 91.4981C160.801 92.8299 161.609 94.3401 161.951 96.4269L162.122 97.5253H164.921C167.58 97.5253 167.735 97.5116 168.466 97.182C169.414 96.7564 170.176 95.9739 170.518 95.0952C170.736 94.5186 170.751 93.8047 170.705 89.6584C170.627 84.4413 170.534 83.7823 169.678 82.6977C169.103 81.9701 168.543 81.7092 166.336 81.16C164.035 80.5834 162.962 80.1578 162.356 79.5263C162.091 79.2654 160.972 77.4669 159.852 75.5173C158.749 73.5815 157.676 71.8379 157.489 71.6457C156.821 71.0004 155.701 70.2728 154.784 69.9021C153.898 69.5451 153.742 69.5314 150.648 69.449C148.892 69.4078 147.383 69.3254 147.306 69.2705C147.244 69.2019 147.15 67.6642 147.104 65.8382L147.026 62.5157L146.591 61.8705C146.093 61.1154 145.487 60.7035 144.507 60.4426C143.466 60.168 105.219 60.1818 103.789 60.4564ZM153.369 72.442C155.157 73.2245 155.655 73.7874 157.722 77.4669C158.733 79.2654 159.526 80.7756 159.464 80.8168C159.402 80.8717 156.665 80.9129 153.385 80.9129C148.239 80.9129 147.383 80.8855 147.259 80.707C147.088 80.4598 147.041 72.1537 147.212 72.0026C147.275 71.9477 148.456 71.9203 149.824 71.9477C152.296 71.9889 152.328 71.9889 153.369 72.442Z" fill="#FFD588"/>
<path d="M97.0875 69.5457C96.8854 69.5732 96.5278 69.7928 96.2635 70.0125C95.8282 70.4106 95.7971 70.493 95.7971 71.5227C95.7971 72.5249 95.8282 72.6348 96.248 73.0467L96.6989 73.4997L109.712 73.5409L122.725 73.5684L123.238 73.1153C124.482 72.017 123.953 69.8203 122.368 69.532C121.823 69.4359 97.6473 69.4496 97.0875 69.5457Z" fill="#FFD588"/>
<path d="M92.1131 79.8284C91.3979 80.1442 91.087 80.8169 91.1647 81.8878C91.2114 82.4919 91.3202 82.8351 91.5223 83.0548C92.2219 83.7412 92.0665 83.7275 104.085 83.7275C110.288 83.7275 115.574 83.6863 115.838 83.6451C116.118 83.5902 116.538 83.3706 116.802 83.1509C117.222 82.7665 117.253 82.6704 117.253 81.6819C117.253 80.5149 117.067 80.1579 116.32 79.8147C115.932 79.6362 114.253 79.6087 104.24 79.6087C93.9943 79.6087 92.5484 79.6362 92.1131 79.8284Z" fill="#FFD588"/>
<path d="M114.222 91.2503C112.9 91.5798 112.03 92.0191 111.081 92.8703C109.558 94.2158 108.796 96.2615 109.138 98.0875C109.775 101.451 113.305 103.758 117.036 103.236C120.814 102.728 123.488 99.529 122.882 96.2752C122.198 92.6095 118.171 90.2755 114.222 91.2503ZM117.191 94.7238C117.907 94.916 118.668 95.6848 118.886 96.4674C119.399 98.211 118.047 99.7899 116.01 99.7899C113.336 99.7899 111.999 96.9617 113.88 95.3004C114.735 94.5453 115.808 94.3531 117.191 94.7238Z" fill="#FFD588"/>
<path d="M151.488 91.1549C149.777 91.4432 148.114 92.4455 147.119 93.7635C144.32 97.4704 146.792 102.482 151.799 103.237C155.219 103.745 158.733 101.726 159.619 98.7609C160.909 94.3538 156.556 90.2762 151.488 91.1549ZM154.271 94.7932C154.893 95.0677 155.623 95.8778 155.81 96.5093C156.136 97.5802 155.717 98.5962 154.628 99.3238C154.162 99.6396 153.866 99.722 153.027 99.7631C152.11 99.8043 151.923 99.7631 151.286 99.4062C149.093 98.1568 149.653 95.1089 152.172 94.5872C152.856 94.4499 153.68 94.5186 154.271 94.7932Z" fill="#FFD588"/>
<path d="M175.621 25.5329C172.151 26.1644 169.774 27.5923 168.553 29.734C168.038 30.5852 167.942 31.4364 167.942 35.0884C167.942 39.3445 167.974 39.4543 168.713 39.976C169.42 40.4703 170.288 40.4977 192.169 40.4977C214.307 40.4977 214.886 40.5252 216.299 41.0744C219.448 42.2825 220.798 44.3144 220.798 47.8017C220.798 49.7238 220.669 50.2455 219.93 51.4811C218.806 53.2659 217.006 54.3917 214.725 54.7761C213.665 54.9409 204.475 55.0507 190.916 55.0507C165.886 55.0507 168.071 54.831 167.846 57.467C167.749 58.7576 167.846 59.1695 168.392 59.7736L169.099 60.5149L185.229 60.5973C200.137 60.6797 201.455 60.7071 202.74 61.2014C204.507 61.8604 206.467 63.7825 206.981 65.3476C207.56 67.0775 207.271 70.2627 206.403 71.718C205.568 73.0909 203.704 74.4638 202.162 74.8208C201.519 74.9855 194.707 75.0954 185.839 75.0954C169.195 75.0954 168.745 75.1228 168.071 76.6605C167.846 77.1547 167.781 80.3125 167.846 85.8042C167.974 95.1675 168.006 95.4146 170.288 97.4465C172.023 98.9842 173.726 99.5608 177.26 99.7256C181.469 99.9453 181.823 99.8354 182.08 98.2154C182.755 93.5474 184.136 90.8565 187.221 88.0283C189.502 85.9689 192.362 84.4038 195.414 83.58C198.338 82.7563 203.415 82.7563 206.339 83.58C212.797 85.3374 218.131 90.3623 219.191 95.6892C219.416 96.6777 219.673 97.9683 219.77 98.5723L219.995 99.6707L238.759 99.7531C252.351 99.7805 257.652 99.7256 257.942 99.5059C258.199 99.3137 258.391 98.6547 258.391 97.9133C258.391 94.5634 260.448 90.6368 263.693 87.8361C267.613 84.4587 271.501 83.0034 276.867 82.9759C282.233 82.9485 286.635 84.4587 290.33 87.6164C293.447 90.2799 295.117 93.3003 295.824 97.474L296.178 99.6707H301.961C307.456 99.6707 307.777 99.6432 309.287 98.9842C311.247 98.133 312.822 96.5679 313.529 94.8105C313.978 93.6573 314.01 92.2294 313.914 83.937C313.753 73.5028 313.561 72.1848 311.793 70.0156C310.605 68.5603 309.448 68.0385 304.885 66.9402C300.13 65.787 297.913 64.9357 296.66 63.6727C296.113 63.1509 293.8 59.5539 291.487 55.6548C289.205 51.7831 286.988 48.2959 286.603 47.9115C285.221 46.621 282.907 45.1657 281.012 44.4243C279.18 43.7104 278.859 43.6829 272.465 43.5182C268.834 43.4358 265.717 43.271 265.557 43.1612C265.428 43.0239 265.235 39.9486 265.139 36.2966L264.978 29.6516L264.079 28.3611C263.05 26.8509 261.797 26.0271 259.773 25.5054C257.62 24.9562 178.577 24.9837 175.621 25.5329ZM278.088 49.5041C281.783 51.0692 282.811 52.195 287.085 59.5539C289.173 63.1509 290.812 66.1714 290.683 66.2537C290.555 66.3636 284.9 66.446 278.12 66.446C267.485 66.446 265.717 66.391 265.46 66.0341C265.107 65.5398 265.01 48.9275 265.364 48.6254C265.492 48.5156 267.934 48.4607 270.762 48.5156C275.871 48.598 275.935 48.598 278.088 49.5041Z" fill="#FFF0D8"/>
<path d="M161.772 43.7101C161.355 43.765 160.616 44.2043 160.069 44.6437C159.17 45.4399 159.105 45.6047 159.105 47.6641C159.105 49.6685 159.17 49.8882 160.037 50.712L160.969 51.6181L187.863 51.7005L214.757 51.7554L215.817 50.8492C218.388 48.6526 217.295 44.2592 214.018 43.6826C212.893 43.4904 162.929 43.5179 161.772 43.7101Z" fill="#FFF0D8"/>
<path d="M151.491 64.2763C150.013 64.9079 149.371 66.2533 149.531 68.3952C149.628 69.6034 149.853 70.2898 150.27 70.7292C151.716 72.1021 151.395 72.0747 176.232 72.0747C189.053 72.0747 199.977 71.9923 200.524 71.9099C201.102 71.8001 201.97 71.3607 202.516 70.9214C203.383 70.1525 203.448 69.9603 203.448 67.9833C203.448 65.6492 203.062 64.9353 201.52 64.2488C200.716 63.8919 197.246 63.837 176.554 63.837C155.379 63.837 152.391 63.8919 151.491 64.2763Z" fill="#FFF0D8"/>
<path d="M197.181 87.1213C194.45 87.7803 192.651 88.659 190.691 90.3614C187.542 93.0523 185.968 97.1436 186.675 100.796C187.992 107.523 195.286 112.136 202.997 111.092C210.805 110.077 216.332 103.679 215.079 97.1711C213.665 89.8397 205.343 85.1717 197.181 87.1213ZM203.319 94.0683C204.797 94.4527 206.371 95.9904 206.821 97.5555C207.881 101.043 205.086 104.2 200.877 104.2C195.35 104.2 192.587 98.544 196.475 95.2215C198.242 93.7113 200.459 93.3269 203.319 94.0683Z" fill="#FFF0D8"/>
<path d="M274.2 86.9293C270.665 87.506 267.227 89.5105 265.171 92.1465C259.387 99.5603 264.496 109.583 274.842 111.093C281.911 112.109 289.173 108.072 291.004 102.141C293.671 93.3272 284.674 85.172 274.2 86.9293ZM279.951 94.2059C281.236 94.755 282.747 96.3751 283.132 97.6382C283.807 99.78 282.939 101.812 280.69 103.267C279.726 103.899 279.116 104.064 277.381 104.146C275.485 104.228 275.099 104.146 273.782 103.432C269.251 100.933 270.408 94.8374 275.613 93.794C277.027 93.5194 278.73 93.6567 279.951 94.2059Z" fill="#FFF0D8"/>
<path d="M82.4681 35.6438C79.9214 36.1424 78.1765 37.2696 77.2805 38.9605C76.9032 39.6325 76.8324 40.3045 76.8324 43.1877C76.8324 46.5477 76.856 46.6344 77.3984 47.0463C77.9171 47.4365 78.5538 47.4582 94.6119 47.4582C110.859 47.4582 111.283 47.4799 112.321 47.9134C114.631 48.8672 115.622 50.4714 115.622 53.2245C115.622 54.7419 115.527 55.1538 114.985 56.1293C114.16 57.5383 112.839 58.4271 111.165 58.7306C110.387 58.8607 103.643 58.9474 93.6922 58.9474C75.3233 58.9474 76.9267 58.774 76.7617 60.855C76.6909 61.8739 76.7617 62.1991 77.1626 62.676L77.6813 63.2613L89.5186 63.3263C100.46 63.3913 101.427 63.413 102.37 63.8032C103.667 64.3235 105.105 65.8409 105.482 67.0766C105.907 68.4423 105.695 70.9569 105.058 72.1058C104.445 73.1897 103.077 74.2736 101.945 74.5554C101.474 74.6854 96.4747 74.7722 89.9666 74.7722C77.7521 74.7722 77.4219 74.7938 76.9267 76.0078C76.7617 76.398 76.7145 78.8909 76.7617 83.2265C76.856 90.6186 76.8796 90.8137 78.5538 92.4179C79.8271 93.6318 81.0769 94.087 83.6707 94.2171C86.7597 94.3905 87.0191 94.3038 87.2077 93.0248C87.7029 89.3396 88.7168 87.2152 90.9805 84.9824C92.6547 83.3566 94.7534 82.1209 96.9935 81.4706C99.1393 80.8203 102.865 80.8203 105.011 81.4706C109.75 82.858 113.665 86.825 114.443 91.0305C114.608 91.8109 114.796 92.8297 114.867 93.3066L115.032 94.1738L128.803 94.2388C138.778 94.2605 142.668 94.2171 142.88 94.0437C143.069 93.8919 143.211 93.3717 143.211 92.7864C143.211 90.1417 144.72 87.0418 147.101 84.8306C149.978 82.1643 152.831 81.0154 156.769 80.9937C160.707 80.972 163.938 82.1643 166.649 84.6572C168.937 86.76 170.163 89.1445 170.681 92.4395L170.941 94.1738H175.185C179.218 94.1738 179.453 94.1521 180.562 93.6318C182 92.9598 183.155 91.7242 183.674 90.3368C184.004 89.4263 184.028 88.2991 183.957 81.7524C183.839 73.5148 183.698 72.4743 182.401 70.7618C181.528 69.6129 180.679 69.201 177.331 68.3339C173.841 67.4234 172.214 66.7514 171.295 65.7542C170.894 65.3423 169.196 62.5025 167.498 59.4243C165.824 56.3677 164.197 53.6147 163.914 53.3112C162.9 52.2923 161.202 51.1434 159.811 50.5581C158.467 49.9945 158.231 49.9728 153.539 49.8427C150.874 49.7777 148.587 49.6476 148.469 49.5609C148.375 49.4525 148.233 47.0246 148.162 44.1415L148.045 38.8955L147.384 37.8766C146.63 36.6843 145.71 36.034 144.225 35.6221C142.645 35.1886 84.6375 35.2102 82.4681 35.6438ZM157.665 54.5685C160.377 55.8041 161.132 56.6929 164.268 62.5025C165.8 65.3423 167.003 67.7269 166.909 67.7919C166.814 67.8786 162.664 67.9437 157.689 67.9437C149.884 67.9437 148.587 67.9003 148.398 67.6185C148.139 67.2283 148.068 54.1133 148.327 53.8748C148.422 53.7881 150.214 53.7447 152.289 53.7881C156.038 53.8531 156.085 53.8531 157.665 54.5685Z" fill="#FFD588"/>
<path d="M72.3041 49.9941C71.9975 50.0374 71.4552 50.3843 71.0543 50.7311C70.3941 51.3598 70.3469 51.4899 70.3469 53.1157C70.3469 54.6982 70.3941 54.8716 71.0307 55.5219L71.7146 56.2373L91.4512 56.3023L111.188 56.3457L111.966 55.6303C113.852 53.8961 113.051 50.4276 110.645 49.9724C109.82 49.8207 73.153 49.8423 72.3041 49.9941Z" fill="#FFD588"/>
<path d="M64.7588 66.2302C63.6741 66.7288 63.2025 67.791 63.3204 69.4819C63.3911 70.4357 63.5562 70.9776 63.8627 71.3245C64.9238 72.4084 64.688 72.3867 82.9155 72.3867C92.324 72.3867 100.341 72.3217 100.742 72.2566C101.167 72.1699 101.803 71.8231 102.204 71.4762C102.841 70.8692 102.888 70.7175 102.888 69.1567C102.888 67.3141 102.605 66.7504 101.473 66.2085C100.884 65.9267 98.3369 65.8833 83.1513 65.8833C67.612 65.8833 65.419 65.9267 64.7588 66.2302Z" fill="#FFD588"/>
<path d="M98.2896 84.2667C96.2853 84.787 94.9648 85.4807 93.5264 86.8247C91.2155 88.9491 90.0601 92.1791 90.5789 95.0622C91.5456 100.373 96.8983 104.015 102.558 103.191C108.288 102.389 112.343 97.3384 111.424 92.2008C110.386 86.4128 104.279 82.7276 98.2896 84.2667ZM102.793 89.7512C103.878 90.0547 105.034 91.2686 105.364 92.5042C106.142 95.2573 104.09 97.7503 101.001 97.7503C96.9455 97.7503 94.9176 93.2846 97.7708 90.6616C99.0677 89.4694 100.695 89.1659 102.793 89.7512Z" fill="#FFD588"/>
<path d="M154.811 84.1148C152.217 84.5701 149.694 86.1526 148.185 88.2336C143.941 94.0866 147.69 101.999 155.283 103.191C160.47 103.993 165.799 100.807 167.143 96.1243C169.101 89.1658 162.498 82.7275 154.811 84.1148ZM159.032 89.8595C159.975 90.293 161.083 91.572 161.366 92.5692C161.861 94.2601 161.225 95.8642 159.574 97.0131C158.867 97.5117 158.419 97.6418 157.145 97.7068C155.754 97.7719 155.471 97.7068 154.504 97.1432C151.18 95.1705 152.029 90.3581 155.849 89.5343C156.886 89.3175 158.136 89.4259 159.032 89.8595Z" fill="#FFD588"/>
<path d="M82.4681 35.6438C79.9214 36.1424 78.1765 37.2696 77.2805 38.9605C76.9032 39.6325 76.8324 40.3045 76.8324 43.1877C76.8324 46.5477 76.856 46.6344 77.3984 47.0463C77.9171 47.4365 78.5538 47.4582 94.6119 47.4582C110.859 47.4582 111.283 47.4799 112.321 47.9134C114.631 48.8672 115.622 50.4714 115.622 53.2245C115.622 54.7419 115.527 55.1538 114.985 56.1293C114.16 57.5383 112.839 58.4271 111.165 58.7306C110.387 58.8607 103.643 58.9474 93.6922 58.9474C75.3233 58.9474 76.9267 58.774 76.7617 60.855C76.6909 61.8739 76.7617 62.1991 77.1626 62.676L77.6813 63.2613L89.5186 63.3263C100.46 63.3913 101.427 63.413 102.37 63.8032C103.667 64.3235 105.105 65.8409 105.482 67.0766C105.907 68.4423 105.695 70.9569 105.058 72.1058C104.445 73.1897 103.077 74.2736 101.945 74.5554C101.474 74.6854 96.4747 74.7722 89.9666 74.7722C77.7521 74.7722 77.4219 74.7938 76.9267 76.0078C76.7617 76.398 76.7145 78.8909 76.7617 83.2265C76.856 90.6186 76.8796 90.8137 78.5538 92.4179C79.8271 93.6318 81.0769 94.087 83.6707 94.2171C86.7597 94.3905 87.0191 94.3038 87.2077 93.0248C87.7029 89.3396 88.7168 87.2152 90.9805 84.9824C92.6547 83.3566 94.7534 82.1209 96.9935 81.4706C99.1393 80.8203 102.865 80.8203 105.011 81.4706C109.75 82.858 113.665 86.825 114.443 91.0305C114.608 91.8109 114.796 92.8297 114.867 93.3066L115.032 94.1738L128.803 94.2388C138.778 94.2605 142.668 94.2171 142.88 94.0437C143.069 93.8919 143.211 93.3717 143.211 92.7864C143.211 90.1417 144.72 87.0418 147.101 84.8306C149.978 82.1643 152.831 81.0154 156.769 80.9937C160.707 80.972 163.938 82.1643 166.649 84.6572C168.937 86.76 170.163 89.1445 170.681 92.4395L170.941 94.1738H175.185C179.218 94.1738 179.453 94.1521 180.562 93.6318C182 92.9598 183.155 91.7242 183.674 90.3368C184.004 89.4263 184.028 88.2991 183.957 81.7524C183.839 73.5148 183.698 72.4743 182.401 70.7618C181.528 69.6129 180.679 69.201 177.331 68.3339C173.841 67.4234 172.214 66.7514 171.295 65.7542C170.894 65.3423 169.196 62.5025 167.498 59.4243C165.824 56.3677 164.197 53.6147 163.914 53.3112C162.9 52.2923 161.202 51.1434 159.811 50.5581C158.467 49.9945 158.231 49.9728 153.539 49.8427C150.874 49.7777 148.587 49.6476 148.469 49.5609C148.375 49.4525 148.233 47.0246 148.162 44.1415L148.045 38.8955L147.384 37.8766C146.63 36.6843 145.71 36.034 144.225 35.6221C142.645 35.1886 84.6375 35.2102 82.4681 35.6438ZM157.665 54.5685C160.377 55.8041 161.132 56.6929 164.268 62.5025C165.8 65.3423 167.003 67.7269 166.909 67.7919C166.814 67.8786 162.664 67.9437 157.689 67.9437C149.884 67.9437 148.587 67.9003 148.398 67.6185C148.139 67.2283 148.068 54.1133 148.327 53.8748C148.422 53.7881 150.214 53.7447 152.289 53.7881C156.038 53.8531 156.085 53.8531 157.665 54.5685Z" fill="url(#paint2_linear_5300_2533)"/>
<path d="M72.3041 49.9941C71.9975 50.0374 71.4552 50.3843 71.0543 50.7311C70.3941 51.3598 70.3469 51.4899 70.3469 53.1157C70.3469 54.6982 70.3941 54.8716 71.0307 55.5219L71.7146 56.2373L91.4512 56.3023L111.188 56.3457L111.966 55.6303C113.852 53.8961 113.051 50.4276 110.645 49.9724C109.82 49.8207 73.153 49.8423 72.3041 49.9941Z" fill="url(#paint3_linear_5300_2533)"/>
<path d="M64.7588 66.2302C63.6741 66.7288 63.2025 67.791 63.3204 69.4819C63.3911 70.4357 63.5562 70.9776 63.8627 71.3245C64.9238 72.4084 64.688 72.3867 82.9155 72.3867C92.324 72.3867 100.341 72.3217 100.742 72.2566C101.167 72.1699 101.803 71.8231 102.204 71.4762C102.841 70.8692 102.888 70.7175 102.888 69.1567C102.888 67.3141 102.605 66.7504 101.473 66.2085C100.884 65.9267 98.3369 65.8833 83.1513 65.8833C67.612 65.8833 65.419 65.9267 64.7588 66.2302Z" fill="url(#paint4_linear_5300_2533)"/>
<path d="M98.2896 84.2667C96.2853 84.787 94.9648 85.4807 93.5264 86.8247C91.2155 88.9491 90.0601 92.1791 90.5789 95.0622C91.5456 100.373 96.8983 104.015 102.558 103.191C108.288 102.389 112.343 97.3384 111.424 92.2008C110.386 86.4128 104.279 82.7276 98.2896 84.2667ZM102.793 89.7512C103.878 90.0547 105.034 91.2686 105.364 92.5042C106.142 95.2573 104.09 97.7503 101.001 97.7503C96.9455 97.7503 94.9176 93.2846 97.7708 90.6616C99.0677 89.4694 100.695 89.1659 102.793 89.7512Z" fill="url(#paint5_linear_5300_2533)"/>
<path d="M154.811 84.1148C152.217 84.5701 149.694 86.1526 148.185 88.2336C143.941 94.0866 147.69 101.999 155.283 103.191C160.47 103.993 165.799 100.807 167.143 96.1243C169.101 89.1658 162.498 82.7275 154.811 84.1148ZM159.032 89.8595C159.975 90.293 161.083 91.572 161.366 92.5692C161.861 94.2601 161.225 95.8642 159.574 97.0131C158.867 97.5117 158.419 97.6418 157.145 97.7068C155.754 97.7719 155.471 97.7068 154.504 97.1432C151.18 95.1705 152.029 90.3581 155.849 89.5343C156.886 89.3175 158.136 89.4259 159.032 89.8595Z" fill="url(#paint6_linear_5300_2533)"/>
<path d="M325.053 73.5981V50.3331H341.223V54.3261H329.97V59.7711H340.431V63.7971H329.97V69.6051H341.223V73.5981H325.053ZM341.462 73.5981L351.197 60.6621V62.9391L341.726 50.3331H347.765L354.101 59.2101H352.451L358.82 50.3331H364.859L355.355 62.9391V60.6621L365.156 73.5981H359.084L352.451 64.3911H354.134L347.468 73.5981H341.462ZM366.646 73.5981V50.3331H377.503C380.121 50.3331 382.101 50.9711 383.443 52.2471C384.807 53.5011 385.489 55.2281 385.489 57.4281C385.489 59.6061 384.807 61.3441 383.443 62.6421C382.101 63.9181 380.121 64.5561 377.503 64.5561H371.794V73.5981H366.646ZM371.794 60.5631H376.843C378.075 60.5631 378.988 60.2881 379.582 59.7381C380.198 59.1881 380.506 58.4181 380.506 57.4281C380.506 56.4381 380.198 55.6791 379.582 55.1511C378.988 54.6011 378.075 54.3261 376.843 54.3261H371.794V60.5631ZM388.634 73.5981V50.3331H399.194C401.812 50.3331 403.836 50.9601 405.266 52.2141C406.696 53.4461 407.411 55.1731 407.411 57.3951C407.411 58.8471 407.081 60.1011 406.421 61.1571C405.783 62.1911 404.859 62.9941 403.649 63.5661C402.461 64.1161 401.031 64.3911 399.359 64.3911L399.755 63.6651H401.108C402.054 63.6651 402.89 63.9181 403.616 64.4241C404.364 64.9301 404.98 65.6671 405.464 66.6351L408.929 73.5981H403.253L399.656 66.1071C399.392 65.4691 398.974 65.0511 398.402 64.8531C397.852 64.6331 397.214 64.5231 396.488 64.5231H393.782V73.5981H388.634ZM393.782 60.8271H398.303C399.645 60.8271 400.668 60.5521 401.372 60.0021C402.076 59.4521 402.428 58.6381 402.428 57.5601C402.428 56.4821 402.076 55.6791 401.372 55.1511C400.668 54.6011 399.645 54.3261 398.303 54.3261H393.782V60.8271ZM411.719 73.5981V50.3331H427.889V54.3261H416.636V59.7711H427.097V63.7971H416.636V69.6051H427.889V73.5981H411.719ZM439.286 73.9611C437.416 73.9611 435.667 73.7301 434.039 73.2681C432.411 72.8061 431.025 72.1681 429.881 71.3541L431.399 67.3281C432.147 67.8341 432.939 68.2631 433.775 68.6151C434.611 68.9671 435.491 69.2421 436.415 69.4401C437.339 69.6161 438.307 69.7041 439.319 69.7041C440.903 69.7041 442.025 69.4621 442.685 68.9781C443.367 68.4941 443.708 67.8781 443.708 67.1301C443.708 66.4481 443.477 65.9311 443.015 65.5791C442.575 65.2051 441.761 64.8861 440.573 64.6221L436.679 63.8301C434.545 63.3901 432.95 62.6421 431.894 61.5861C430.838 60.5301 430.31 59.1221 430.31 57.3621C430.31 55.8661 430.706 54.5681 431.498 53.4681C432.29 52.3681 433.401 51.5101 434.831 50.8941C436.283 50.2781 437.977 49.9701 439.913 49.9701C441.563 49.9701 443.103 50.2011 444.533 50.6631C445.963 51.1251 447.14 51.7851 448.064 52.6431L446.546 56.4051C445.644 55.6791 444.632 55.1401 443.51 54.7881C442.41 54.4141 441.178 54.2271 439.814 54.2271C438.384 54.2271 437.284 54.4801 436.514 54.9861C435.766 55.4921 435.392 56.1851 435.392 57.0651C435.392 57.7251 435.623 58.2641 436.085 58.6821C436.547 59.0781 437.361 59.3971 438.527 59.6391L442.355 60.3981C444.533 60.8381 446.15 61.5751 447.206 62.6091C448.262 63.6431 448.79 65.0181 448.79 66.7341C448.79 68.1861 448.394 69.4511 447.602 70.5291C446.832 71.6071 445.732 72.4541 444.302 73.0701C442.894 73.6641 441.222 73.9611 439.286 73.9611ZM460.727 73.9611C458.857 73.9611 457.108 73.7301 455.48 73.2681C453.852 72.8061 452.466 72.1681 451.322 71.3541L452.84 67.3281C453.588 67.8341 454.38 68.2631 455.216 68.6151C456.052 68.9671 456.932 69.2421 457.856 69.4401C458.78 69.6161 459.748 69.7041 460.76 69.7041C462.344 69.7041 463.466 69.4621 464.126 68.9781C464.808 68.4941 465.149 67.8781 465.149 67.1301C465.149 66.4481 464.918 65.9311 464.456 65.5791C464.016 65.2051 463.202 64.8861 462.014 64.6221L458.12 63.8301C455.986 63.3901 454.391 62.6421 453.335 61.5861C452.279 60.5301 451.751 59.1221 451.751 57.3621C451.751 55.8661 452.147 54.5681 452.939 53.4681C453.731 52.3681 454.842 51.5101 456.272 50.8941C457.724 50.2781 459.418 49.9701 461.354 49.9701C463.004 49.9701 464.544 50.2011 465.974 50.6631C467.404 51.1251 468.581 51.7851 469.505 52.6431L467.987 56.4051C467.085 55.6791 466.073 55.1401 464.951 54.7881C463.851 54.4141 462.619 54.2271 461.255 54.2271C459.825 54.2271 458.725 54.4801 457.955 54.9861C457.207 55.4921 456.833 56.1851 456.833 57.0651C456.833 57.7251 457.064 58.2641 457.526 58.6821C457.988 59.0781 458.802 59.3971 459.968 59.6391L463.796 60.3981C465.974 60.8381 467.591 61.5751 468.647 62.6091C469.703 63.6431 470.231 65.0181 470.231 66.7341C470.231 68.1861 469.835 69.4511 469.043 70.5291C468.273 71.6071 467.173 72.4541 465.743 73.0701C464.335 73.6641 462.663 73.9611 460.727 73.9611Z" fill="#807F7F"/>
<path d="M371.271 90.1036H380.346C382.92 90.1036 385.131 90.5656 386.979 91.4896C388.827 92.4136 390.235 93.7556 391.203 95.5156C392.193 97.2756 392.688 99.3766 392.688 101.819C392.688 104.283 392.204 106.395 391.236 108.155C390.268 109.915 388.86 111.268 387.012 112.214C385.164 113.138 382.942 113.6 380.346 113.6H371.271V90.1036ZM380.016 109.442C385.032 109.442 387.54 106.901 387.54 101.819C387.54 96.7806 385.032 94.2616 380.016 94.2616H376.419V109.442H380.016ZM396.45 90.1036H412.653V94.0966H401.466V99.6406H411.96V103.667H401.466V109.607H412.653V113.6H396.45V90.1036ZM415.925 90.1036H421.073V109.409H431.567V113.6H415.925V90.1036ZM434.433 90.1036H439.581V113.6H434.433V90.1036ZM466.422 90.1036L455.862 113.6H451.737L441.177 90.1036H446.523L453.849 107.165L461.241 90.1036H466.422ZM468.001 90.1036H484.204V94.0966H473.017V99.6406H483.511V103.667H473.017V109.607H484.204V113.6H468.001V90.1036ZM507.309 113.6H501.864L498.861 105.779C498.619 105.163 498.245 104.734 497.739 104.492C497.255 104.25 496.639 104.129 495.891 104.129H492.558V113.6H487.476V90.1036H497.937C500.665 90.1036 502.733 90.6976 504.141 91.8856C505.549 93.0736 506.253 94.7786 506.253 97.0006C506.253 98.5626 505.835 99.9046 504.999 101.027C504.185 102.149 503.008 102.952 501.468 103.436C502.854 103.722 503.855 104.679 504.471 106.307L507.309 113.6ZM497.178 100.202C498.652 100.202 499.73 99.9596 500.412 99.4756C501.094 98.9696 501.435 98.1886 501.435 97.1326C501.435 96.0766 501.094 95.3066 500.412 94.8226C499.73 94.3166 498.652 94.0636 497.178 94.0636H492.492V100.202H497.178ZM521.062 104.492V113.6H515.914V104.459L506.212 90.1036H512.053L518.455 100.136L524.923 90.1036H530.797L521.062 104.492Z" fill="#FD9149"/>
<path d="M371.271 90.1036V89.1036H370.271V90.1036H371.271ZM386.979 91.4896L387.426 90.5952V90.5952L386.979 91.4896ZM391.203 95.5156L390.327 95.9975L390.332 96.0059L391.203 95.5156ZM391.236 108.155L392.112 108.637L391.236 108.155ZM387.012 112.214L387.459 113.108L387.468 113.104L387.012 112.214ZM371.271 113.6H370.271V114.6H371.271V113.6ZM376.419 94.2616V93.2616H375.419V94.2616H376.419ZM376.419 109.442H375.419V110.442H376.419V109.442ZM371.271 91.1036H380.346V89.1036H371.271V91.1036ZM380.346 91.1036C382.802 91.1036 384.853 91.5444 386.532 92.384L387.426 90.5952C385.41 89.5868 383.038 89.1036 380.346 89.1036V91.1036ZM386.532 92.384C388.204 93.22 389.46 94.4207 390.327 95.9975L392.079 95.0337C391.011 93.0905 389.45 91.6072 387.426 90.5952L386.532 92.384ZM390.332 96.0059C391.221 97.5878 391.688 99.5125 391.688 101.819H393.688C393.688 99.2407 393.165 96.9634 392.075 95.0253L390.332 96.0059ZM391.688 101.819C391.688 104.152 391.23 106.09 390.36 107.673L392.112 108.637C393.178 106.699 393.688 104.413 393.688 101.819H391.688ZM390.36 107.673C389.492 109.252 388.233 110.465 386.557 111.323L387.468 113.104C389.487 112.07 391.045 110.578 392.112 108.637L390.36 107.673ZM386.565 111.319C384.887 112.158 382.826 112.6 380.346 112.6V114.6C383.059 114.6 385.442 114.117 387.459 113.108L386.565 111.319ZM380.346 112.6H371.271V114.6H380.346V112.6ZM372.271 113.6V90.1036H370.271V113.6H372.271ZM380.016 110.442C382.682 110.442 384.864 109.765 386.371 108.238C387.876 106.714 388.54 104.51 388.54 101.819H386.54C386.54 104.209 385.951 105.817 384.948 106.833C383.947 107.847 382.367 108.442 380.016 108.442V110.442ZM388.54 101.819C388.54 99.1466 387.875 96.9586 386.368 95.4453C384.86 93.9312 382.679 93.2616 380.016 93.2616V95.2616C382.369 95.2616 383.95 95.8516 384.951 96.8564C385.952 97.8621 386.54 99.4527 386.54 101.819H388.54ZM380.016 93.2616H376.419V95.2616H380.016V93.2616ZM375.419 94.2616V109.442H377.419V94.2616H375.419ZM376.419 110.442H380.016V108.442H376.419V110.442ZM396.45 90.1036V89.1036H395.45V90.1036H396.45ZM412.653 90.1036H413.653V89.1036H412.653V90.1036ZM412.653 94.0966V95.0966H413.653V94.0966H412.653ZM401.466 94.0966V93.0966H400.466V94.0966H401.466ZM401.466 99.6406H400.466V100.641H401.466V99.6406ZM411.96 99.6406H412.96V98.6406H411.96V99.6406ZM411.96 103.667V104.667H412.96V103.667H411.96ZM401.466 103.667V102.667H400.466V103.667H401.466ZM401.466 109.607H400.466V110.607H401.466V109.607ZM412.653 109.607H413.653V108.607H412.653V109.607ZM412.653 113.6V114.6H413.653V113.6H412.653ZM396.45 113.6H395.45V114.6H396.45V113.6ZM396.45 91.1036H412.653V89.1036H396.45V91.1036ZM411.653 90.1036V94.0966H413.653V90.1036H411.653ZM412.653 93.0966H401.466V95.0966H412.653V93.0966ZM400.466 94.0966V99.6406H402.466V94.0966H400.466ZM401.466 100.641H411.96V98.6406H401.466V100.641ZM410.96 99.6406V103.667H412.96V99.6406H410.96ZM411.96 102.667H401.466V104.667H411.96V102.667ZM400.466 103.667V109.607H402.466V103.667H400.466ZM401.466 110.607H412.653V108.607H401.466V110.607ZM411.653 109.607V113.6H413.653V109.607H411.653ZM412.653 112.6H396.45V114.6H412.653V112.6ZM397.45 113.6V90.1036H395.45V113.6H397.45ZM415.925 90.1036V89.1036H414.925V90.1036H415.925ZM421.073 90.1036H422.073V89.1036H421.073V90.1036ZM421.073 109.409H420.073V110.409H421.073V109.409ZM431.567 109.409H432.567V108.409H431.567V109.409ZM431.567 113.6V114.6H432.567V113.6H431.567ZM415.925 113.6H414.925V114.6H415.925V113.6ZM415.925 91.1036H421.073V89.1036H415.925V91.1036ZM420.073 90.1036V109.409H422.073V90.1036H420.073ZM421.073 110.409H431.567V108.409H421.073V110.409ZM430.567 109.409V113.6H432.567V109.409H430.567ZM431.567 112.6H415.925V114.6H431.567V112.6ZM416.925 113.6V90.1036H414.925V113.6H416.925ZM434.433 90.1036V89.1036H433.433V90.1036H434.433ZM439.581 90.1036H440.581V89.1036H439.581V90.1036ZM439.581 113.6V114.6H440.581V113.6H439.581ZM434.433 113.6H433.433V114.6H434.433V113.6ZM434.433 91.1036H439.581V89.1036H434.433V91.1036ZM438.581 90.1036V113.6H440.581V90.1036H438.581ZM439.581 112.6H434.433V114.6H439.581V112.6ZM435.433 113.6V90.1036H433.433V113.6H435.433ZM466.422 90.1036L467.334 90.5135L467.967 89.1036H466.422V90.1036ZM455.862 113.6V114.6H456.508L456.774 114.01L455.862 113.6ZM451.737 113.6L450.824 114.01L451.09 114.6H451.737V113.6ZM441.176 90.1036V89.1036H439.631L440.264 90.5135L441.176 90.1036ZM446.522 90.1036L447.441 89.709L447.181 89.1036H446.522V90.1036ZM453.849 107.165L452.93 107.559L453.844 109.689L454.766 107.562L453.849 107.165ZM461.241 90.1036V89.1036H460.584L460.323 89.7061L461.241 90.1036ZM465.509 89.6937L454.949 113.19L456.774 114.01L467.334 90.5135L465.509 89.6937ZM455.862 112.6H451.737V114.6H455.862V112.6ZM452.649 113.19L442.089 89.6937L440.264 90.5135L450.824 114.01L452.649 113.19ZM441.176 91.1036H446.522V89.1036H441.176V91.1036ZM445.604 90.4982L452.93 107.559L454.767 106.77L447.441 89.709L445.604 90.4982ZM454.766 107.562L462.158 90.5012L460.323 89.7061L452.931 106.767L454.766 107.562ZM461.241 91.1036H466.422V89.1036H461.241V91.1036ZM468.001 90.1036V89.1036H467.001V90.1036H468.001ZM484.204 90.1036H485.204V89.1036H484.204V90.1036ZM484.204 94.0966V95.0966H485.204V94.0966H484.204ZM473.017 94.0966V93.0966H472.017V94.0966H473.017ZM473.017 99.6406H472.017V100.641H473.017V99.6406ZM483.511 99.6406H484.511V98.6406H483.511V99.6406ZM483.511 103.667V104.667H484.511V103.667H483.511ZM473.017 103.667V102.667H472.017V103.667H473.017ZM473.017 109.607H472.017V110.607H473.017V109.607ZM484.204 109.607H485.204V108.607H484.204V109.607ZM484.204 113.6V114.6H485.204V113.6H484.204ZM468.001 113.6H467.001V114.6H468.001V113.6ZM468.001 91.1036H484.204V89.1036H468.001V91.1036ZM483.204 90.1036V94.0966H485.204V90.1036H483.204ZM484.204 93.0966H473.017V95.0966H484.204V93.0966ZM472.017 94.0966V99.6406H474.017V94.0966H472.017ZM473.017 100.641H483.511V98.6406H473.017V100.641ZM482.511 99.6406V103.667H484.511V99.6406H482.511ZM483.511 102.667H473.017V104.667H483.511V102.667ZM472.017 103.667V109.607H474.017V103.667H472.017ZM473.017 110.607H484.204V108.607H473.017V110.607ZM483.204 109.607V113.6H485.204V109.607H483.204ZM484.204 112.6H468.001V114.6H484.204V112.6ZM469.001 113.6V90.1036H467.001V113.6H469.001ZM507.309 113.6V114.6H508.771L508.241 113.237L507.309 113.6ZM501.864 113.6L500.93 113.958L501.177 114.6H501.864V113.6ZM498.861 105.779L499.795 105.42L499.792 105.413L498.861 105.779ZM497.739 104.492L497.292 105.386L497.3 105.39L497.308 105.394L497.739 104.492ZM492.558 104.129V103.129H491.558V104.129H492.558ZM492.558 113.6V114.6H493.558V113.6H492.558ZM487.476 113.6H486.476V114.6H487.476V113.6ZM487.476 90.1036V89.1036H486.476V90.1036H487.476ZM504.141 91.8856L504.786 91.1213V91.1213L504.141 91.8856ZM504.999 101.027L504.197 100.429L504.19 100.439L504.999 101.027ZM501.468 103.436L501.168 102.482L497.493 103.637L501.266 104.415L501.468 103.436ZM504.471 106.307L503.536 106.661L503.539 106.669L504.471 106.307ZM500.412 99.4756L500.991 100.291L500.999 100.285L501.008 100.279L500.412 99.4756ZM500.412 94.8226L499.816 95.6257L499.825 95.632L499.833 95.6381L500.412 94.8226ZM492.492 94.0636V93.0636H491.492V94.0636H492.492ZM492.492 100.202H491.492V101.202H492.492V100.202ZM507.309 112.6H501.864V114.6H507.309V112.6ZM502.798 113.241L499.795 105.42L497.927 106.137L500.93 113.958L502.798 113.241ZM499.792 105.413C499.475 104.607 498.945 103.96 498.17 103.589L497.308 105.394C497.545 105.507 497.763 105.719 497.93 106.144L499.792 105.413ZM498.186 103.597C497.521 103.264 496.738 103.129 495.891 103.129V105.129C496.54 105.129 496.989 105.235 497.292 105.386L498.186 103.597ZM495.891 103.129H492.558V105.129H495.891V103.129ZM491.558 104.129V113.6H493.558V104.129H491.558ZM492.558 112.6H487.476V114.6H492.558V112.6ZM488.476 113.6V90.1036H486.476V113.6H488.476ZM487.476 91.1036H497.937V89.1036H487.476V91.1036ZM497.937 91.1036C500.539 91.1036 502.338 91.6725 503.496 92.6499L504.786 91.1213C503.128 89.7227 500.791 89.1036 497.937 89.1036V91.1036ZM503.496 92.6499C504.632 93.6087 505.253 95.0065 505.253 97.0006H507.253C507.253 94.5507 506.466 92.5385 504.786 91.1213L503.496 92.6499ZM505.253 97.0006C505.253 98.3736 504.89 99.4997 504.197 100.429L505.801 101.624C506.78 100.309 507.253 98.7516 507.253 97.0006H505.253ZM504.19 100.439C503.522 101.36 502.538 102.051 501.168 102.482L501.768 104.39C503.478 103.852 504.848 102.937 505.808 101.614L504.19 100.439ZM501.266 104.415C502.236 104.615 503.009 105.268 503.536 106.661L505.406 105.953C504.701 104.089 503.471 102.828 501.67 102.456L501.266 104.415ZM503.539 106.669L506.377 113.962L508.241 113.237L505.403 105.944L503.539 106.669ZM497.178 101.202C498.72 101.202 500.053 100.956 500.991 100.291L499.833 98.6601C499.407 98.9629 498.584 99.2016 497.178 99.2016V101.202ZM501.008 100.279C502.006 99.5382 502.435 98.4194 502.435 97.1326H500.435C500.435 97.9579 500.182 98.401 499.816 98.6725L501.008 100.279ZM502.435 97.1326C502.435 95.8476 502.006 94.7276 500.991 94.0071L499.833 95.6381C500.182 95.8856 500.435 96.3056 500.435 97.1326H502.435ZM501.008 94.0195C500.067 93.3215 498.726 93.0636 497.178 93.0636V95.0636C498.578 95.0636 499.393 95.3117 499.816 95.6257L501.008 94.0195ZM497.178 93.0636H492.492V95.0636H497.178V93.0636ZM491.492 94.0636V100.202H493.492V94.0636H491.492ZM492.492 101.202H497.178V99.2016H492.492V101.202ZM521.062 104.492L520.234 103.931L520.062 104.185V104.492H521.062ZM521.062 113.6V114.6H522.062V113.6H521.062ZM515.914 113.6H514.914V114.6H515.914V113.6ZM515.914 104.459H516.914V104.152L516.742 103.899L515.914 104.459ZM506.212 90.1036V89.1036H504.329L505.383 90.6636L506.212 90.1036ZM512.053 90.1036L512.896 89.5657L512.601 89.1036H512.053V90.1036ZM518.455 100.136L517.612 100.674L518.451 101.988L519.295 100.677L518.455 100.136ZM524.923 90.1036V89.1036H524.378L524.083 89.5617L524.923 90.1036ZM530.797 90.1036L531.625 90.664L532.681 89.1036H530.797V90.1036ZM520.062 104.492V113.6H522.062V104.492H520.062ZM521.062 112.6H515.914V114.6H521.062V112.6ZM516.914 113.6V104.459H514.914V113.6H516.914ZM516.742 103.899L507.04 89.5436L505.383 90.6636L515.085 105.019L516.742 103.899ZM506.212 91.1036H512.053V89.1036H506.212V91.1036ZM511.21 90.6416L517.612 100.674L519.298 99.5977L512.896 89.5657L511.21 90.6416ZM519.295 100.677L525.763 90.6455L524.083 89.5617L517.615 99.5937L519.295 100.677ZM524.923 91.1036H530.797V89.1036H524.923V91.1036ZM529.969 89.5432L520.234 103.931L521.89 105.052L531.625 90.664L529.969 89.5432Z" fill="white"/>
<path fill-rule="evenodd" clip-rule="evenodd" d="M91.1085 117.42C90.5023 117.087 89.4077 116.948 88.735 117.12C87.4872 117.438 86.6196 118.328 86.5155 119.396C86.2574 122.042 90.3746 123.214 92.0504 120.971C92.5772 120.265 92.6163 119.077 92.1364 118.361C91.7611 117.801 91.6993 117.745 91.1085 117.42ZM83.8567 111.586C82.6664 111.081 81.5468 111.169 80.5798 111.843C78.3231 113.417 79.5892 116.406 82.5023 116.383C83.3336 116.376 83.8548 116.183 84.5153 115.639C85.4714 114.852 85.6924 113.552 85.0365 112.574C84.6425 111.986 84.4812 111.851 83.8567 111.586ZM76.6672 105.742C75.5687 105.275 74.2159 105.473 73.2902 106.236C71.4295 107.769 72.4961 110.43 75.044 110.612C76.8885 110.743 78.4679 109.417 78.3263 107.856C78.2388 106.89 77.6729 106.169 76.6672 105.742ZM83.9125 117.307C83.3063 116.974 82.2117 116.835 81.539 117.007C80.2912 117.326 79.4237 118.215 79.3195 119.283C79.2052 120.455 79.9631 121.446 81.3147 121.892C82.6119 122.319 83.9632 121.934 84.8015 120.898C85.3856 120.176 85.447 119.004 84.9404 118.249C84.5651 117.689 84.5033 117.632 83.9125 117.307ZM76.8317 111.54C75.5086 110.91 74.1787 111.038 73.1493 111.894C71.6003 113.182 72.0938 115.43 74.0689 116.083C74.7485 116.308 75.7974 116.325 76.353 116.121C76.9919 115.886 77.8353 115.115 78.0578 114.563C78.5076 113.448 77.9497 112.073 76.8317 111.54ZM69.4712 105.629C68.3727 105.163 67.02 105.36 66.0942 106.123C64.2336 107.656 65.3002 110.317 67.848 110.499C69.6753 110.629 71.2724 109.304 71.1329 107.774C71.0443 106.802 70.4615 106.05 69.4712 105.629ZM84.2602 123.289C84.194 123.254 83.9425 123.1 83.7011 122.947C83.1564 122.602 81.9266 122.509 81.1209 122.753C79.9254 123.114 79.1314 124.141 79.1916 125.247C79.3261 127.713 83.0821 128.629 84.6641 126.581C85.1202 125.991 85.2955 125.112 85.0812 124.49C84.9377 124.074 84.4828 123.408 84.2602 123.289ZM76.7188 117.193C75.173 116.354 72.9815 116.97 72.3185 118.431C71.3158 120.639 74.0185 122.735 76.4692 121.649C78.5116 120.744 78.6519 118.242 76.7188 117.193ZM69.6357 111.427C68.2999 110.791 66.9891 110.924 65.9217 111.803C64.3969 113.06 64.9085 115.31 66.8702 115.974C67.4914 116.184 68.6508 116.192 69.2063 115.989C69.7996 115.772 70.646 114.986 70.8618 114.451C71.3116 113.336 70.7537 111.96 69.6357 111.427ZM62.3476 105.558C61.1748 105.067 59.8338 105.24 58.9089 106.002C58.2218 106.568 58.0517 106.866 57.9763 107.638C57.7453 110.007 61.0055 111.315 63.0147 109.66C64.4856 108.448 64.1376 106.308 62.3476 105.558ZM76.0958 122.636C75.5205 122.438 74.4743 122.455 73.8209 122.673C72.6842 123.052 71.9371 124.059 71.9957 125.134C72.1301 127.601 75.8862 128.517 77.4681 126.469C77.9481 125.847 78.0986 124.986 77.8493 124.286C77.6392 123.696 76.7533 122.862 76.0958 122.636ZM69.5228 117.08C67.977 116.241 65.7855 116.858 65.1225 118.318C64.0751 120.625 67.0311 122.735 69.4858 121.432C71.34 120.447 71.3601 118.077 69.5228 117.08ZM62.4449 111.31C61.0647 110.681 59.7926 110.812 58.7257 111.691C57.2009 112.947 57.7125 115.197 59.6742 115.861C60.2954 116.072 61.4548 116.079 62.0103 115.876C62.9029 115.55 63.7856 114.469 63.8372 113.639C63.8894 112.798 63.2075 111.658 62.4449 111.31ZM55.2057 105.483C54.0449 104.954 52.6268 105.112 51.7036 105.873C51.0432 106.417 50.799 106.855 50.7606 107.565C50.6255 110.059 54.0756 111.243 56.007 109.364C57.2241 108.181 56.8188 106.218 55.2057 105.483ZM75.8581 128.269C72.8171 127.415 70.5265 130.516 72.7503 132.476C73.7173 133.328 75.1518 133.492 76.4087 132.893C77.5302 132.359 78.0865 131.149 77.7438 129.989C77.5415 129.305 76.6495 128.491 75.8581 128.269ZM68.8848 122.536C66.3947 121.819 64.1916 123.626 64.9454 125.768C65.214 126.531 66.1997 127.267 67.1691 127.428C69.4284 127.803 71.3085 126.032 70.6453 124.155C70.4338 123.556 69.5244 122.72 68.8848 122.536ZM62.2495 116.98C60.1958 115.901 57.6122 117.209 57.7246 119.271C57.8458 121.494 60.9268 122.527 62.7851 120.969C64.2094 119.774 63.9547 117.877 62.2495 116.98ZM55.2954 111.244C54.007 110.557 52.6199 110.68 51.5297 111.578C50.6761 112.281 50.4053 113.386 50.8482 114.358C51.5929 115.992 54.1602 116.459 55.6504 115.231C56.2296 114.754 56.605 114.108 56.6412 113.526C56.692 112.707 56.0745 111.66 55.2954 111.244ZM48.0097 105.37C46.0382 104.472 43.5822 105.655 43.541 107.522C43.5074 109.041 44.914 110.237 46.6528 110.168C47.5311 110.133 48.1989 109.847 48.8239 109.239C50.0278 108.068 49.6138 106.101 48.0097 105.37ZM68.6621 128.157C68.3615 128.072 67.8172 128.015 67.4528 128.029C64.9176 128.13 63.7462 130.763 65.5321 132.346C66.4904 133.196 67.9184 133.383 69.1421 132.82C70.3373 132.27 70.961 130.874 70.5039 129.772C70.2252 129.1 69.3787 128.358 68.6621 128.157ZM61.6888 122.423C59.1987 121.706 56.9957 123.514 57.7494 125.655C58.018 126.419 59.0037 127.155 59.9731 127.315C62.2255 127.689 64.1105 125.914 63.4493 124.042C63.2379 123.444 62.3284 122.607 61.6888 122.423ZM55.0535 116.868C52.9807 115.778 50.4157 117.086 50.5294 119.174C50.5696 119.91 50.9078 120.483 51.615 121.014C53.8046 122.659 57.2581 120.65 56.3605 118.254C56.1444 117.678 55.7026 117.209 55.0535 116.868ZM48.0994 111.132C46.8115 110.444 45.4239 110.567 44.3345 111.465C43.7152 111.975 43.4348 112.495 43.4201 113.159C43.3797 114.989 45.3202 116.217 47.405 115.681C48.2986 115.451 49.1595 114.609 49.3477 113.78C49.5754 112.777 49.0355 111.631 48.0994 111.132ZM40.8137 105.258C38.5644 104.233 35.8741 105.895 36.4032 107.982C36.9475 110.13 39.9182 110.789 41.615 109.139C42.8321 107.955 42.4268 105.993 40.8137 105.258ZM61.5369 128.085C61.2187 127.977 60.6515 127.901 60.2762 127.916C57.7141 128.018 56.5366 130.638 58.3361 132.234C60.092 133.791 63.1515 132.905 63.4401 130.757C63.5887 129.651 62.7705 128.503 61.5369 128.085ZM54.4928 122.31C52.0027 121.593 49.7997 123.401 50.5534 125.542C50.8221 126.306 51.8078 127.042 52.7771 127.203C55.0914 127.586 57.031 125.658 56.1892 123.811C55.9249 123.23 55.0737 122.478 54.4928 122.31ZM47.1843 116.485C46.8163 116.382 46.1909 116.34 45.7946 116.392C45.2023 116.47 44.9469 116.582 44.3594 117.021C43.7263 117.494 43.6191 117.633 43.4212 118.234C43.0957 119.221 43.3987 120.1 44.3094 120.811C45.1327 121.453 46.0617 121.649 47.0959 121.398C47.6752 121.258 47.8967 121.132 48.4374 120.637C48.9687 120.15 49.1101 119.932 49.2254 119.422C49.4251 118.54 49.188 117.863 48.4496 117.205C48.0121 116.815 47.6755 116.623 47.1843 116.485ZM40.9035 111.019C39.53 110.286 38.1473 110.442 37.0511 111.453C36.2235 112.216 36.0208 112.939 36.3686 113.884C36.8943 115.312 38.4871 116.011 40.209 115.568C41.0619 115.349 41.9375 114.516 42.1425 113.729C42.3997 112.742 41.8403 111.519 40.9035 111.019ZM33.6076 105.125C32.8582 104.744 31.4085 104.762 30.6116 105.163C29.4029 105.77 28.8642 106.967 29.285 108.111C29.7219 109.298 30.8599 109.998 32.2609 109.942C33.1357 109.907 33.8065 109.622 34.423 109.022C35.6267 107.852 35.2286 105.949 33.6076 105.125ZM54.3443 127.971C52.2703 127.306 50.1863 128.588 50.2886 130.465C50.3308 131.239 50.4881 131.543 51.1504 132.13C53.2025 133.95 56.7354 132.369 56.1964 129.872C56.0275 129.09 55.2071 128.247 54.3443 127.971ZM47.2933 122.201C45.0582 121.599 43.0877 122.859 43.2224 124.804C43.3307 126.369 45.1732 127.47 46.9875 127.054C48.4357 126.722 49.3624 125.47 49.1243 124.167C49.0294 123.647 48.9031 123.437 48.3819 122.933C47.935 122.5 47.6211 122.289 47.2933 122.201ZM40.0052 116.374C39.6279 116.27 38.9916 116.227 38.5913 116.28C37.934 116.367 37.7869 116.44 37.0747 117.026C36.3805 117.598 36.2704 117.744 36.1559 118.242C35.9477 119.148 36.14 119.761 36.8521 120.464C37.3613 120.966 37.5806 121.1 38.1509 121.258C39.1988 121.548 40.1178 121.376 40.9957 120.726C41.5949 120.283 41.75 120.098 41.9355 119.609C42.2747 118.713 42.0737 117.928 41.3131 117.177C40.794 116.665 40.5781 116.533 40.0052 116.374ZM33.7489 110.956C32.5265 110.212 31.0717 110.309 29.9797 111.209C28.7287 112.239 28.6627 113.76 29.8244 114.79C30.6413 115.514 31.8238 115.761 33.013 115.455C33.8659 115.236 34.7416 114.403 34.9465 113.616C35.2022 112.635 34.7099 111.542 33.7489 110.956ZM26.4116 105.012C25.6913 104.646 24.2249 104.651 23.4664 105.023C20.9081 106.276 21.7544 109.615 24.6831 109.824C26.7111 109.968 28.3322 108.37 27.8507 106.701C27.6541 106.02 27.0889 105.356 26.4116 105.012ZM47.1483 127.858C45.1431 127.215 43.0921 128.41 43.0539 130.243C43.0399 130.915 43.3181 131.478 43.9334 132.024C45.9824 133.84 49.5385 132.251 49.0004 129.759C48.8315 128.977 48.0111 128.135 47.1483 127.858ZM40.0973 122.088C38.3446 121.616 36.743 122.256 36.1591 123.66C35.792 124.543 35.949 125.312 36.6411 126.022C36.9313 126.32 37.3839 126.66 37.6469 126.778C39.7756 127.737 42.3657 126.049 41.9218 123.992C41.7633 123.259 40.8308 122.285 40.0973 122.088ZM32.8093 116.261C31.7614 115.971 30.8424 116.143 29.9645 116.793C29.3653 117.237 29.2102 117.421 29.0247 117.911C28.6855 118.807 28.8865 119.592 29.6471 120.342C30.1662 120.854 30.3821 120.987 30.9549 121.146C32.0028 121.435 32.9218 121.264 33.7997 120.614C34.3989 120.17 34.554 119.986 34.7395 119.496C35.0787 118.6 34.8777 117.815 34.1171 117.065C33.598 116.552 33.3821 116.42 32.8093 116.261ZM26.5492 110.847C25.3635 110.109 23.8458 110.201 22.7644 111.076C20.8725 112.607 21.9668 115.276 24.5623 115.461C26.4636 115.597 28.0714 114.161 27.7811 112.588C27.6619 111.942 27.1523 111.222 26.5492 110.847ZM19.2755 104.944C18.5265 104.527 17.0815 104.513 16.2607 104.915C14.6566 105.701 14.2332 107.472 15.3565 108.698C16.9491 110.437 19.9863 109.882 20.6276 107.735C20.9393 106.692 20.3945 105.567 19.2755 104.944ZM39.9523 127.745C38.3036 127.217 36.6269 127.882 36.0382 129.298C35.3051 131.061 36.9216 132.825 39.1363 132.677C40.8869 132.561 42.129 131.15 41.8044 129.647C41.6356 128.864 40.8151 128.022 39.9523 127.745ZM32.9016 121.975C30.4558 121.316 28.1998 123.039 28.8775 125.048C29.2092 126.031 30.4557 126.895 31.6186 126.948C33.4522 127.031 35.0185 125.514 34.7306 123.934C34.6375 123.422 34.5094 123.21 33.99 122.707C33.5435 122.275 33.229 122.063 32.9016 121.975ZM32.753 127.634C31.0527 127.058 29.2091 127.892 28.7447 129.446C28.247 131.112 29.8688 132.702 31.9256 132.566C33.2565 132.477 34.2795 131.686 34.5683 130.521C34.8689 129.309 34.1035 128.091 32.753 127.634ZM25.6997 121.867C25.0254 121.677 24.2273 121.666 23.5552 121.839C22.666 122.067 21.8 122.912 21.6159 123.729C21.2673 125.278 22.7998 126.878 24.588 126.833C25.491 126.81 26.0259 126.588 26.7212 125.947C27.519 125.211 27.7571 124.431 27.456 123.541C27.2226 122.85 26.3978 122.064 25.6997 121.867ZM25.5627 127.517C24.8455 127.282 23.8027 127.31 23.1396 127.583C22.5013 127.845 21.8165 128.531 21.5628 129.163C21.3256 129.753 21.5077 130.825 21.9349 131.351C23.0827 132.766 25.6579 132.826 26.8562 131.465C27.338 130.918 27.5717 129.867 27.3505 129.243C27.0967 128.526 26.3015 127.759 25.5627 127.517ZM18.3645 127.407C16.1477 126.697 13.9002 128.243 14.2992 130.204C14.8368 132.845 19.0679 133.131 20.0794 130.595C20.5694 129.365 19.7557 127.853 18.3645 127.407Z" fill="#747070"/>
<defs>
<linearGradient id="paint0_linear_5300_2533" x1="570.137" y1="11" x2="570.137" y2="141.462" gradientUnits="userSpaceOnUse">
<stop stop-color="#FD9149"/>
<stop offset="1" stop-color="#FD9149" stop-opacity="0"/>
</linearGradient>
<linearGradient id="paint1_linear_5300_2533" x1="34" y1="68" x2="272" y2="61" gradientUnits="userSpaceOnUse">
<stop offset="0.248796" stop-color="#FFF8ED"/>
<stop offset="1" stop-color="#FFF8ED" stop-opacity="0"/>
</linearGradient>
<linearGradient id="paint2_linear_5300_2533" x1="130.364" y1="94.2842" x2="130.364" y2="35.3076" gradientUnits="userSpaceOnUse">
<stop stop-color="#FD9149"/>
<stop offset="1" stop-color="#FD9149" stop-opacity="0"/>
</linearGradient>
<linearGradient id="paint3_linear_5300_2533" x1="91.6792" y1="56.3457" x2="91.6792" y2="49.8688" gradientUnits="userSpaceOnUse">
<stop stop-color="#FD9149"/>
<stop offset="1" stop-color="#FD9149" stop-opacity="0"/>
</linearGradient>
<linearGradient id="paint4_linear_5300_2533" x1="83.0953" y1="72.3867" x2="83.0953" y2="65.8833" gradientUnits="userSpaceOnUse">
<stop stop-color="#FD9149"/>
<stop offset="1" stop-color="#FD9149" stop-opacity="0"/>
</linearGradient>
<linearGradient id="paint5_linear_5300_2533" x1="101.005" y1="103.308" x2="101.005" y2="83.9159" gradientUnits="userSpaceOnUse">
<stop stop-color="#FD9149"/>
<stop offset="1" stop-color="#FD9149" stop-opacity="0"/>
</linearGradient>
<linearGradient id="paint6_linear_5300_2533" x1="156.949" y1="103.315" x2="156.949" y2="83.9249" gradientUnits="userSpaceOnUse">
<stop stop-color="#FD9149"/>
<stop offset="1" stop-color="#FD9149" stop-opacity="0"/>
</linearGradient>
</defs>
</svg>
