<svg width="591" height="160" viewBox="0 0 591 160" fill="none" xmlns="http://www.w3.org/2000/svg">
<rect x="0.0805664" width="15.7621" height="130.463" fill="#FFD588"/>
<rect x="0.0805664" width="15.7621" height="130.463" fill="url(#paint0_linear_5300_2568)"/>
<rect x="318" y="1" width="273" height="129" fill="url(#paint1_linear_5300_2568)"/>
<rect x="318" y="1" width="273" height="129" fill="url(#paint2_linear_5300_2568)"/>
<path fill-rule="evenodd" clip-rule="evenodd" d="M296.414 1.92287C279.498 6.57972 271.329 22.5863 278.75 36.536C279.7 38.322 287.567 49.0555 296.233 60.3884C319.371 90.6478 321.832 93.6974 324.279 95.1456C331.799 99.597 344.36 98.7593 353.306 93.2103C359.034 89.6562 387.064 65.9114 389.258 62.7536C394.706 54.9117 394.14 44.5213 387.988 39.4687C385.266 37.2326 324.796 5.30862 319.045 3.07132C314.929 1.46986 313.468 1.2176 307.324 1.04693C301.878 0.895342 299.433 1.09147 296.414 1.92287ZM309.419 16.4274C314.59 18.3795 316.997 23.3251 314.947 27.7858C313.17 31.6558 309.822 33.5506 304.76 33.5506C298.577 33.5506 294.423 30.409 293.915 25.3489C293.535 21.5564 295.714 18.398 299.933 16.6276C303.682 15.0545 305.672 15.0123 309.419 16.4274ZM341.687 51.7753C344.054 63.0718 346.139 72.7563 346.323 73.2973C346.709 74.4313 343.933 77.014 343.12 76.2775C342.821 76.0067 340.638 66.6733 338.268 55.536C335.899 44.3987 333.799 34.7228 333.601 34.0349C333.203 32.6451 335.897 29.9051 336.837 30.7446C337.139 31.0148 339.322 40.4789 341.687 51.7753ZM358.974 44.4941C361.13 45.4331 364.844 48.5782 365.99 50.4354C367.422 52.7577 366.94 56.147 364.888 58.1737C360.893 62.12 356.267 62.212 350.981 58.4502C345.904 54.8377 344.608 50.6361 347.477 47.0959C350.161 43.786 354.89 42.7156 358.974 44.4941ZM324.582 45.9637C326.928 46.7054 331.822 50.436 333.06 52.4262C333.609 53.3097 334.059 55.1171 334.059 56.4432C334.059 58.4722 333.631 59.2099 331.357 61.1006C329.054 63.0151 328.212 63.3466 325.653 63.3466C323.544 63.3466 321.864 62.8936 320.008 61.8244C316.563 59.8399 313.18 55.5707 313.18 53.2079C313.18 50.7929 315.734 47.6889 318.762 46.4248C321.554 45.2584 322.19 45.2081 324.582 45.9637ZM351.159 48.0558C349.697 49.2719 349.781 50.9659 351.413 53.1622C354.56 57.3943 360.116 58.8974 362.312 56.1111C363.841 54.1717 362.707 51.8627 358.892 49.1487C355.82 46.9623 352.961 46.5584 351.159 48.0558ZM318.449 50.37C316.941 51.6243 317.081 53.3953 318.859 55.5522C322.275 59.697 327.499 61.0937 329.602 58.4253C331.105 56.519 330.052 54.2956 326.32 51.4924C323.346 49.2586 320.308 48.8258 318.449 50.37Z" fill="#FFF0D8"/>
<path fill-rule="evenodd" clip-rule="evenodd" d="M371.877 10.8182C358.721 14.947 352.367 29.1383 358.139 41.5061C358.878 43.0896 364.997 52.6059 371.737 62.6536C389.733 89.4816 391.647 92.1854 393.55 93.4693C399.399 97.4159 409.169 96.6732 416.127 91.7534C420.582 88.6024 442.383 67.5503 444.089 64.7506C448.327 57.798 447.887 48.5859 443.102 44.1063C440.985 42.1237 393.953 13.82 389.479 11.8364C386.278 10.4166 385.142 10.1929 380.363 10.0416C376.127 9.90721 374.226 10.0811 371.877 10.8182ZM381.992 23.6779C386.014 25.4086 387.886 29.7934 386.292 33.7482C384.91 37.1794 382.306 38.8593 378.369 38.8593C373.56 38.8593 370.329 36.074 369.934 31.5877C369.638 28.2253 371.333 25.4251 374.615 23.8554C377.531 22.4607 379.078 22.4233 381.992 23.6779ZM407.09 55.0173C408.931 65.0327 410.553 73.619 410.696 74.0986C410.996 75.104 408.837 77.3939 408.204 76.7409C407.972 76.5008 406.274 68.2258 404.431 58.3515C402.588 48.4772 400.955 39.8985 400.801 39.2886C400.491 38.0565 402.587 35.6272 403.317 36.3715C403.552 36.611 405.25 45.0019 407.09 55.0173ZM420.536 48.5618C422.213 49.3943 425.101 52.1827 425.992 53.8293C427.106 55.8883 426.731 58.8932 425.135 60.6901C422.028 64.1889 418.43 64.2705 414.318 60.9352C410.37 57.7324 409.362 54.0073 411.593 50.8685C413.681 47.9339 417.359 46.985 420.536 48.5618ZM393.786 49.8647C395.61 50.5223 399.417 53.8298 400.38 55.5944C400.807 56.3777 401.157 57.9801 401.157 59.1558C401.157 60.9547 400.824 61.6087 399.056 63.2851C397.264 64.9824 396.61 65.2764 394.619 65.2764C392.978 65.2764 391.672 64.8747 390.229 63.9268C387.549 62.1674 384.918 58.3823 384.918 56.2874C384.918 54.1463 386.904 51.3943 389.259 50.2735C391.431 49.2394 391.926 49.1948 393.786 49.8647ZM414.457 51.7195C413.32 52.7978 413.386 54.2997 414.655 56.2469C417.102 59.9991 421.423 61.3318 423.132 58.8614C424.32 57.142 423.439 55.0948 420.472 52.6885C418.082 50.7501 415.859 50.392 414.457 51.7195ZM389.016 53.7713C387.843 54.8834 387.952 56.4536 389.335 58.3659C391.992 62.0407 396.055 63.2789 397.691 60.9132C398.859 59.223 398.041 57.2517 395.138 54.7665C392.825 52.786 390.461 52.4023 389.016 53.7713Z" fill="#FFD588"/>
<path fill-rule="evenodd" clip-rule="evenodd" d="M371.877 10.8182C358.721 14.947 352.367 29.1383 358.139 41.5061C358.878 43.0896 364.997 52.6059 371.737 62.6536C389.733 89.4816 391.647 92.1854 393.55 93.4693C399.399 97.4159 409.169 96.6732 416.127 91.7534C420.582 88.6024 442.383 67.5503 444.089 64.7506C448.327 57.798 447.887 48.5859 443.102 44.1063C440.985 42.1237 393.953 13.82 389.479 11.8364C386.278 10.4166 385.142 10.1929 380.363 10.0416C376.127 9.90721 374.226 10.0811 371.877 10.8182ZM381.992 23.6779C386.014 25.4086 387.886 29.7934 386.292 33.7482C384.91 37.1794 382.306 38.8593 378.369 38.8593C373.56 38.8593 370.329 36.074 369.934 31.5877C369.638 28.2253 371.333 25.4251 374.615 23.8554C377.531 22.4607 379.078 22.4233 381.992 23.6779ZM407.09 55.0173C408.931 65.0327 410.553 73.619 410.696 74.0986C410.996 75.104 408.837 77.3939 408.204 76.7409C407.972 76.5008 406.274 68.2258 404.431 58.3515C402.588 48.4772 400.955 39.8985 400.801 39.2886C400.491 38.0565 402.587 35.6272 403.317 36.3715C403.552 36.611 405.25 45.0019 407.09 55.0173ZM420.536 48.5618C422.213 49.3943 425.101 52.1827 425.992 53.8293C427.106 55.8883 426.731 58.8932 425.135 60.6901C422.028 64.1889 418.43 64.2705 414.318 60.9352C410.37 57.7324 409.362 54.0073 411.593 50.8685C413.681 47.9339 417.359 46.985 420.536 48.5618ZM393.786 49.8647C395.61 50.5223 399.417 53.8298 400.38 55.5944C400.807 56.3777 401.157 57.9801 401.157 59.1558C401.157 60.9547 400.824 61.6087 399.056 63.2851C397.264 64.9824 396.61 65.2764 394.619 65.2764C392.978 65.2764 391.672 64.8747 390.229 63.9268C387.549 62.1674 384.918 58.3823 384.918 56.2874C384.918 54.1463 386.904 51.3943 389.259 50.2735C391.431 49.2394 391.926 49.1948 393.786 49.8647ZM414.457 51.7195C413.32 52.7978 413.386 54.2997 414.655 56.2469C417.102 59.9991 421.423 61.3318 423.132 58.8614C424.32 57.142 423.439 55.0948 420.472 52.6885C418.082 50.7501 415.859 50.392 414.457 51.7195ZM389.016 53.7713C387.843 54.8834 387.952 56.4536 389.335 58.3659C391.992 62.0407 396.055 63.2789 397.691 60.9132C398.859 59.223 398.041 57.2517 395.138 54.7665C392.825 52.786 390.461 52.4023 389.016 53.7713Z" fill="url(#paint3_linear_5300_2568)"/>
<path d="M106.652 65.4601C104.87 65.4601 103.154 65.2291 101.504 64.7671C99.8758 64.2831 98.5228 63.6121 97.4448 62.7541L99.0948 59.0581C101.361 60.6421 103.891 61.4341 106.685 61.4341C108.181 61.4341 109.325 61.2031 110.117 60.7411C110.931 60.2571 111.338 59.5861 111.338 58.7281C111.338 57.9801 110.964 57.3971 110.216 56.9791C109.49 56.5391 108.203 56.1211 106.355 55.7251C104.287 55.3071 102.637 54.8011 101.405 54.2071C100.195 53.5911 99.3038 52.8541 98.7318 51.9961C98.1818 51.1161 97.9068 50.0271 97.9068 48.7291C97.9068 47.3211 98.2918 46.0561 99.0618 44.9341C99.8538 43.8121 100.954 42.9431 102.362 42.3271C103.77 41.6891 105.398 41.3701 107.246 41.3701C108.918 41.3701 110.524 41.6121 112.064 42.0961C113.604 42.5801 114.836 43.2401 115.76 44.0761L114.11 47.7721C112.042 46.1881 109.765 45.3961 107.279 45.3961C105.959 45.3961 104.903 45.6601 104.111 46.1881C103.319 46.7161 102.923 47.4311 102.923 48.3331C102.923 48.8611 103.066 49.3011 103.352 49.6531C103.66 50.0051 104.166 50.3241 104.87 50.6101C105.574 50.8741 106.575 51.1381 107.873 51.4021C110.887 52.0621 113.054 52.9201 114.374 53.9761C115.716 55.0321 116.387 56.4731 116.387 58.2991C116.387 60.4991 115.529 62.2481 113.813 63.5461C112.097 64.8221 109.71 65.4601 106.652 65.4601ZM119.843 41.6671H130.502C133.098 41.6671 135.111 42.2941 136.541 43.5481C137.993 44.8021 138.719 46.5071 138.719 48.6631C138.719 50.7971 137.993 52.5021 136.541 53.7781C135.089 55.0321 133.076 55.6591 130.502 55.6591H124.991V65.1631H119.843V41.6671ZM129.842 51.7321C132.526 51.7321 133.868 50.7201 133.868 48.6961C133.868 46.6501 132.526 45.6271 129.842 45.6271H124.991V51.7321H129.842ZM141.832 41.6671H158.035V45.6601H146.848V51.2041H157.342V55.2301H146.848V61.1701H158.035V65.1631H141.832V41.6671ZM172.329 65.4601C169.953 65.4601 167.874 64.9651 166.092 63.9751C164.332 62.9631 162.979 61.5551 162.033 59.7511C161.087 57.9251 160.614 55.8021 160.614 53.3821C160.614 50.9841 161.087 48.8831 162.033 47.0791C162.979 45.2531 164.332 43.8451 166.092 42.8551C167.874 41.8651 169.953 41.3701 172.329 41.3701C173.891 41.3701 175.376 41.6121 176.784 42.0961C178.214 42.5581 179.38 43.2181 180.282 44.0761L178.665 47.7721C177.609 46.9801 176.575 46.4081 175.563 46.0561C174.573 45.6821 173.528 45.4951 172.428 45.4951C170.316 45.4951 168.699 46.1661 167.577 47.5081C166.455 48.8501 165.894 50.8081 165.894 53.3821C165.894 55.9781 166.455 57.9581 167.577 59.3221C168.699 60.6641 170.316 61.3351 172.428 61.3351C173.528 61.3351 174.573 61.1591 175.563 60.8071C176.575 60.4331 177.609 59.8501 178.665 59.0581L180.282 62.7541C179.38 63.6121 178.214 64.2831 176.784 64.7671C175.376 65.2291 173.891 65.4601 172.329 65.4601ZM183.618 41.6671H188.766V65.1631H183.618V41.6671ZM208.907 59.9491H197.918L195.674 65.1631H190.493L201.284 41.6671H205.442L216.233 65.1631H211.151L208.907 59.9491ZM207.224 56.0221L203.429 47.2111L199.634 56.0221H207.224ZM217.959 41.6671H223.107V60.9721H233.601V65.1631H217.959V41.6671Z" fill="#747070"/>
<path d="M33.1604 77.9395H42.2354C44.8094 77.9395 47.0204 78.4015 48.8684 79.3255C50.7164 80.2495 52.1244 81.5915 53.0924 83.3515C54.0824 85.1115 54.5774 87.2125 54.5774 89.6545C54.5774 92.1185 54.0934 94.2305 53.1254 95.9905C52.1574 97.7505 50.7494 99.1035 48.9014 100.05C47.0534 100.974 44.8314 101.436 42.2354 101.436H33.1604V77.9395ZM41.9054 97.2775C46.9214 97.2775 49.4294 94.7365 49.4294 89.6545C49.4294 84.6165 46.9214 82.0975 41.9054 82.0975H38.3084V97.2775H41.9054ZM58.3394 77.9395H63.4874V101.436H58.3394V77.9395ZM76.1377 101.733C74.3557 101.733 72.6397 101.502 70.9897 101.04C69.3617 100.556 68.0087 99.8845 66.9307 99.0265L68.5807 95.3305C70.8467 96.9145 73.3767 97.7065 76.1707 97.7065C77.6667 97.7065 78.8107 97.4755 79.6027 97.0135C80.4167 96.5295 80.8237 95.8585 80.8237 95.0005C80.8237 94.2525 80.4497 93.6695 79.7017 93.2515C78.9757 92.8115 77.6887 92.3935 75.8407 91.9975C73.7727 91.5795 72.1227 91.0735 70.8907 90.4795C69.6807 89.8635 68.7897 89.1265 68.2177 88.2685C67.6677 87.3885 67.3927 86.2995 67.3927 85.0015C67.3927 83.5935 67.7777 82.3285 68.5477 81.2065C69.3397 80.0845 70.4397 79.2155 71.8477 78.5995C73.2557 77.9615 74.8837 77.6425 76.7317 77.6425C78.4037 77.6425 80.0097 77.8845 81.5497 78.3685C83.0897 78.8525 84.3217 79.5125 85.2457 80.3485L83.5957 84.0445C81.5277 82.4605 79.2507 81.6685 76.7647 81.6685C75.4447 81.6685 74.3887 81.9325 73.5967 82.4605C72.8047 82.9885 72.4087 83.7035 72.4087 84.6055C72.4087 85.1335 72.5517 85.5735 72.8377 85.9255C73.1457 86.2775 73.6517 86.5965 74.3557 86.8825C75.0597 87.1465 76.0607 87.4105 77.3587 87.6745C80.3727 88.3345 82.5397 89.1925 83.8597 90.2485C85.2017 91.3045 85.8727 92.7455 85.8727 94.5715C85.8727 96.7715 85.0147 98.5205 83.2987 99.8185C81.5827 101.095 79.1957 101.733 76.1377 101.733ZM100.351 101.733C97.9752 101.733 95.8962 101.238 94.1142 100.248C92.3542 99.2355 91.0012 97.8275 90.0552 96.0235C89.1092 94.1975 88.6362 92.0745 88.6362 89.6545C88.6362 87.2565 89.1092 85.1555 90.0552 83.3515C91.0012 81.5255 92.3542 80.1175 94.1142 79.1275C95.8962 78.1375 97.9752 77.6425 100.351 77.6425C101.913 77.6425 103.398 77.8845 104.806 78.3685C106.236 78.8305 107.402 79.4905 108.304 80.3485L106.687 84.0445C105.631 83.2525 104.597 82.6805 103.585 82.3285C102.595 81.9545 101.55 81.7675 100.45 81.7675C98.3382 81.7675 96.7212 82.4385 95.5992 83.7805C94.4772 85.1225 93.9162 87.0805 93.9162 89.6545C93.9162 92.2505 94.4772 94.2305 95.5992 95.5945C96.7212 96.9365 98.3382 97.6075 100.45 97.6075C101.55 97.6075 102.595 97.4315 103.585 97.0795C104.597 96.7055 105.631 96.1225 106.687 95.3305L108.304 99.0265C107.402 99.8845 106.236 100.556 104.806 101.04C103.398 101.502 101.913 101.733 100.351 101.733ZM121.948 101.733C119.616 101.733 117.581 101.249 115.843 100.281C114.127 99.2905 112.796 97.8825 111.85 96.0565C110.926 94.2305 110.464 92.0965 110.464 89.6545C110.464 87.2125 110.926 85.0895 111.85 83.2855C112.796 81.4815 114.127 80.0955 115.843 79.1275C117.581 78.1375 119.616 77.6425 121.948 77.6425C124.28 77.6425 126.304 78.1375 128.02 79.1275C129.736 80.0955 131.056 81.4815 131.98 83.2855C132.904 85.0895 133.366 87.2125 133.366 89.6545C133.366 92.0965 132.904 94.2305 131.98 96.0565C131.056 97.8825 129.736 99.2905 128.02 100.281C126.304 101.249 124.28 101.733 121.948 101.733ZM121.948 97.7065C123.928 97.7065 125.468 97.0135 126.568 95.6275C127.69 94.2415 128.251 92.2505 128.251 89.6545C128.251 87.0585 127.69 85.0785 126.568 83.7145C125.468 82.3505 123.928 81.6685 121.948 81.6685C119.968 81.6685 118.417 82.3505 117.295 83.7145C116.195 85.0785 115.645 87.0585 115.645 89.6545C115.645 92.2725 116.195 94.2745 117.295 95.6605C118.417 97.0245 119.968 97.7065 121.948 97.7065ZM147.075 101.733C143.775 101.733 141.267 100.886 139.551 99.1915C137.835 97.4975 136.977 95.0115 136.977 91.7335V77.9395H142.026V91.9645C142.026 93.8345 142.455 95.2645 143.313 96.2545C144.193 97.2225 145.447 97.7065 147.075 97.7065C148.703 97.7065 149.946 97.2225 150.804 96.2545C151.662 95.2645 152.091 93.8345 152.091 91.9645V77.9395H157.173V91.7335C157.173 94.9895 156.304 97.4755 154.566 99.1915C152.85 100.886 150.353 101.733 147.075 101.733ZM181.811 77.9395V101.436H177.983L166.268 86.4535V101.436H161.45V77.9395H165.245L176.96 92.8885V77.9395H181.811ZM191.654 82.1305H184.295V77.9395H204.227V82.1305H196.868V101.436H191.654V82.1305Z" fill="#FD9149"/>
<path d="M33.1604 77.9395V76.9395H32.1604V77.9395H33.1604ZM48.8684 79.3255L49.3156 78.4311V78.4311L48.8684 79.3255ZM53.0924 83.3515L52.2161 83.8335L52.2208 83.8418L53.0924 83.3515ZM53.1254 95.9905L54.0016 96.4725L53.1254 95.9905ZM48.9014 100.05L49.3486 100.944L49.3571 100.94L48.9014 100.05ZM33.1604 101.436H32.1604V102.436H33.1604V101.436ZM38.3084 82.0975V81.0975H37.3084V82.0975H38.3084ZM38.3084 97.2775H37.3084V98.2775H38.3084V97.2775ZM33.1604 78.9395H42.2354V76.9395H33.1604V78.9395ZM42.2354 78.9395C44.6915 78.9395 46.7419 79.3804 48.4212 80.22L49.3156 78.4311C47.2988 77.4227 44.9273 76.9395 42.2354 76.9395V78.9395ZM48.4212 80.22C50.0932 81.056 51.3489 82.2567 52.2162 83.8335L53.9686 82.8696C52.8998 80.9264 51.3396 79.4431 49.3156 78.4311L48.4212 80.22ZM52.2208 83.8418C53.1106 85.4237 53.5774 87.3485 53.5774 89.6545H55.5774C55.5774 87.0766 55.0541 84.7994 53.964 82.8613L52.2208 83.8418ZM53.5774 89.6545C53.5774 91.9879 53.1195 93.9262 52.2492 95.5086L54.0016 96.4725C55.0673 94.5349 55.5774 92.2492 55.5774 89.6545H53.5774ZM52.2492 95.5086C51.3808 97.0875 50.1222 98.3012 48.4457 99.1594L49.3571 100.94C51.3765 99.9059 52.934 98.4136 54.0016 96.4725L52.2492 95.5086ZM48.4542 99.1551C46.776 99.9942 44.715 100.436 42.2354 100.436V102.436C44.9478 102.436 47.3307 101.953 49.3486 100.944L48.4542 99.1551ZM42.2354 100.436H33.1604V102.436H42.2354V100.436ZM34.1604 101.436V77.9395H32.1604V101.436H34.1604ZM41.9054 98.2775C44.5709 98.2775 46.7529 97.6013 48.2601 96.0743C49.7649 94.5497 50.4294 92.3464 50.4294 89.6545H48.4294C48.4294 92.0447 47.8399 93.6529 46.8367 94.6693C45.8359 95.6833 44.2559 96.2775 41.9054 96.2775V98.2775ZM50.4294 89.6545C50.4294 86.9825 49.7638 84.7946 48.257 83.2812C46.7495 81.7671 44.5686 81.0975 41.9054 81.0975V83.0975C44.2581 83.0975 45.8393 83.6875 46.8397 84.6924C47.841 85.698 48.4294 87.2886 48.4294 89.6545H50.4294ZM41.9054 81.0975H38.3084V83.0975H41.9054V81.0975ZM37.3084 82.0975V97.2775H39.3084V82.0975H37.3084ZM38.3084 98.2775H41.9054V96.2775H38.3084V98.2775ZM58.3394 77.9395V76.9395H57.3394V77.9395H58.3394ZM63.4874 77.9395H64.4874V76.9395H63.4874V77.9395ZM63.4874 101.436V102.436H64.4874V101.436H63.4874ZM58.3394 101.436H57.3394V102.436H58.3394V101.436ZM58.3394 78.9395H63.4874V76.9395H58.3394V78.9395ZM62.4874 77.9395V101.436H64.4874V77.9395H62.4874ZM63.4874 100.436H58.3394V102.436H63.4874V100.436ZM59.3394 101.436V77.9395H57.3394V101.436H59.3394ZM70.9897 101.04L70.7047 101.998L70.7124 102L70.7201 102.003L70.9897 101.04ZM66.9307 99.0265L66.0176 98.6189L65.7017 99.3264L66.3079 99.809L66.9307 99.0265ZM68.5807 95.3305L69.1536 94.5109L68.1612 93.8172L67.6676 94.9229L68.5807 95.3305ZM79.6027 97.0135L80.1066 97.8774L80.1138 97.8731L79.6027 97.0135ZM79.7017 93.2515L79.1834 94.1067L79.1985 94.1159L79.2139 94.1245L79.7017 93.2515ZM75.8407 91.9975L76.0502 91.0197L76.0388 91.0174L75.8407 91.9975ZM70.8907 90.4795L70.437 91.3707L70.4467 91.3756L70.4564 91.3803L70.8907 90.4795ZM68.2177 88.2685L67.3697 88.7985L67.3775 88.811L67.3856 88.8232L68.2177 88.2685ZM68.5477 81.2065L67.7307 80.6298L67.7232 80.6407L68.5477 81.2065ZM71.8477 78.5995L72.2485 79.5158L72.2604 79.5104L71.8477 78.5995ZM81.5497 78.3685L81.8495 77.4146V77.4146L81.5497 78.3685ZM85.2457 80.3485L86.1588 80.7562L86.4546 80.0937L85.9166 79.607L85.2457 80.3485ZM83.5957 84.0445L82.9876 84.8384L83.9927 85.6083L84.5088 84.4522L83.5957 84.0445ZM73.5967 82.4605L73.042 81.6285L73.042 81.6285L73.5967 82.4605ZM72.8377 85.9255L72.0616 86.5561L72.0731 86.5703L72.0851 86.5841L72.8377 85.9255ZM74.3557 86.8825L73.9793 87.809L73.9919 87.8141L74.0046 87.8189L74.3557 86.8825ZM77.3587 87.6745L77.5726 86.6977L77.5653 86.6961L77.558 86.6946L77.3587 87.6745ZM83.8597 90.2485L83.235 91.0294L83.2413 91.0344L83.8597 90.2485ZM83.2987 99.8185L83.8954 100.621L83.902 100.616L83.2987 99.8185ZM76.1377 100.733C74.4432 100.733 72.8181 100.513 71.2593 100.077L70.7201 102.003C72.4613 102.49 74.2682 102.733 76.1377 102.733V100.733ZM71.2747 100.081C69.7418 99.6253 68.5108 99.0061 67.5534 98.2441L66.3079 99.809C67.5066 100.763 68.9816 101.486 70.7047 101.998L71.2747 100.081ZM67.8438 99.4342L69.4938 95.7382L67.6676 94.9229L66.0176 98.6189L67.8438 99.4342ZM68.0078 96.1502C70.4436 97.8529 73.1741 98.7065 76.1707 98.7065V96.7065C73.5793 96.7065 71.2498 95.9762 69.1536 94.5109L68.0078 96.1502ZM76.1707 98.7065C77.7436 98.7065 79.0936 98.4682 80.1066 97.8773L79.0988 96.1498C78.5277 96.4829 77.5898 96.7065 76.1707 96.7065V98.7065ZM80.1138 97.8731C81.193 97.2314 81.8237 96.2532 81.8237 95.0005H79.8237C79.8237 95.4639 79.6404 95.8277 79.0916 96.154L80.1138 97.8731ZM81.8237 95.0005C81.8237 93.8309 81.1983 92.9423 80.1895 92.3786L79.2139 94.1245C79.7011 94.3968 79.8237 94.6742 79.8237 95.0005H81.8237ZM80.22 92.3963C79.3388 91.8623 77.9067 91.4176 76.0502 91.0197L75.6312 92.9753C77.4706 93.3695 78.6126 93.7608 79.1834 94.1067L80.22 92.3963ZM76.0388 91.0174C74.0135 90.608 72.4529 90.1226 71.325 89.5788L70.4564 91.3803C71.7925 92.0245 73.5319 92.5511 75.6426 92.9777L76.0388 91.0174ZM71.3444 89.5884C70.2404 89.0263 69.5011 88.3909 69.0497 87.7138L67.3856 88.8232C68.0783 89.8622 69.121 90.7008 70.437 91.3707L71.3444 89.5884ZM69.0657 87.7385C68.6372 87.053 68.3927 86.1589 68.3927 85.0015H66.3927C66.3927 86.4402 66.6982 87.7241 67.3697 88.7985L69.0657 87.7385ZM68.3927 85.0015C68.3927 83.7881 68.7207 82.7218 69.3722 81.7724L67.7232 80.6407C66.8347 81.9353 66.3927 83.399 66.3927 85.0015H68.3927ZM69.3647 81.7832C70.0393 80.8274 70.9872 80.0675 72.2485 79.5157L71.4469 77.6834C69.8922 78.3636 68.64 79.3417 67.7307 80.6299L69.3647 81.7832ZM72.2604 79.5104C73.5159 78.9415 74.9986 78.6425 76.7317 78.6425V76.6425C74.7687 76.6425 72.9955 76.9816 71.435 77.6887L72.2604 79.5104ZM76.7317 78.6425C78.3057 78.6425 79.8103 78.8701 81.2499 79.3225L81.8495 77.4146C80.2091 76.899 78.5017 76.6425 76.7317 76.6425V78.6425ZM81.2499 79.3225C82.6913 79.7756 83.7844 80.375 84.5748 81.0901L85.9166 79.607C84.859 78.6501 83.4881 77.9295 81.8495 77.4146L81.2499 79.3225ZM84.3326 79.9409L82.6826 83.6369L84.5088 84.4522L86.1588 80.7562L84.3326 79.9409ZM84.2038 83.2507C81.9702 81.5398 79.4816 80.6685 76.7647 80.6685V82.6685C79.0198 82.6685 81.0852 83.3812 82.9876 84.8384L84.2038 83.2507ZM76.7647 80.6685C75.3211 80.6685 74.0505 80.9562 73.042 81.6285L74.1514 83.2926C74.7269 82.9089 75.5683 82.6685 76.7647 82.6685V80.6685ZM73.042 81.6285C71.9902 82.3297 71.4087 83.3477 71.4087 84.6055H73.4087C73.4087 84.0594 73.6192 83.6474 74.1514 83.2926L73.042 81.6285ZM71.4087 84.6055C71.4087 85.3237 71.6076 85.9974 72.0616 86.5561L73.6138 85.295C73.4957 85.1496 73.4087 84.9434 73.4087 84.6055H71.4087ZM72.0851 86.5841C72.5407 87.1048 73.2108 87.4968 73.9793 87.809L74.7321 85.9561C74.0925 85.6963 73.7507 85.4503 73.5903 85.267L72.0851 86.5841ZM74.0046 87.8189C74.7815 88.1102 75.8423 88.3866 77.1594 88.6545L77.558 86.6946C76.2791 86.4345 75.3379 86.1829 74.7068 85.9462L74.0046 87.8189ZM77.1448 88.6514C80.113 89.3014 82.0972 90.1192 83.235 91.0294L84.4844 89.4677C82.9822 88.2659 80.6324 87.3677 77.5726 86.6977L77.1448 88.6514ZM83.2413 91.0344C84.3237 91.8862 84.8727 93.0276 84.8727 94.5715H86.8727C86.8727 92.4634 86.0797 90.7229 84.4781 89.4627L83.2413 91.0344ZM84.8727 94.5715C84.8727 96.4665 84.155 97.917 82.6954 99.021L83.902 100.616C85.8744 99.1241 86.8727 97.0766 86.8727 94.5715H84.8727ZM82.702 99.0161C81.2186 100.119 79.0701 100.733 76.1377 100.733V102.733C79.3213 102.733 81.9468 102.07 83.8954 100.621L82.702 99.0161ZM94.1142 100.248L93.6157 101.114L93.6221 101.118L93.6285 101.122L94.1142 100.248ZM90.0552 96.0235L89.1672 96.4836L89.1696 96.488L90.0552 96.0235ZM90.0552 83.3515L90.9408 83.816L90.9431 83.8116L90.0552 83.3515ZM94.1142 79.1275L93.6285 78.2534L93.6239 78.256L94.1142 79.1275ZM104.806 78.3685L104.481 79.3142L104.49 79.3173L104.499 79.3201L104.806 78.3685ZM108.304 80.3485L109.22 80.7494L109.501 80.1071L108.993 79.624L108.304 80.3485ZM106.687 84.0445L106.087 84.8445L107.097 85.6021L107.603 84.4454L106.687 84.0445ZM103.585 82.3285L103.232 83.264L103.244 83.2687L103.257 83.273L103.585 82.3285ZM95.5992 95.5945L94.8269 96.2298L94.832 96.236L95.5992 95.5945ZM103.585 97.0795L103.92 98.0218L103.932 98.0175L103.585 97.0795ZM106.687 95.3305L107.603 94.9297L107.097 93.773L106.087 94.5305L106.687 95.3305ZM108.304 99.0265L108.993 99.7511L109.501 99.268L109.22 98.6257L108.304 99.0265ZM104.806 101.04L105.118 101.99L105.127 101.987L104.806 101.04ZM100.351 100.733C98.1168 100.733 96.2103 100.268 94.5998 99.3734L93.6285 101.122C95.582 102.207 97.8335 102.733 100.351 102.733V100.733ZM94.6126 99.3806C93.0179 98.4637 91.7989 97.1955 90.9408 95.5591L89.1696 96.488C90.2034 98.4596 91.6905 100.007 93.6157 101.114L94.6126 99.3806ZM90.9431 95.5635C90.0827 93.9028 89.6362 91.9427 89.6362 89.6545H87.6362C87.6362 92.2064 88.1356 94.4923 89.1673 96.4836L90.9431 95.5635ZM89.6362 89.6545C89.6362 87.3897 90.0822 85.4533 90.9408 83.816L89.1696 82.8871C88.1362 84.8578 87.6362 87.1234 87.6362 89.6545H89.6362ZM90.9431 83.8116C91.8012 82.1552 93.0175 80.8917 94.6044 79.9991L93.6239 78.256C91.6908 79.3433 90.2011 80.8959 89.1673 82.8915L90.9431 83.8116ZM94.5998 80.0017C96.2103 79.107 98.1168 78.6425 100.351 78.6425V76.6425C97.8335 76.6425 95.582 77.1681 93.6285 78.2534L94.5998 80.0017ZM100.351 78.6425C101.808 78.6425 103.183 78.8679 104.481 79.3142L105.131 77.4229C103.614 76.9012 102.018 76.6425 100.351 76.6425V78.6425ZM104.499 79.3201C105.815 79.7454 106.842 80.3376 107.615 81.0731L108.993 79.624C107.963 78.6435 106.657 77.9157 105.114 77.417L104.499 79.3201ZM107.388 79.9477L105.771 83.6437L107.603 84.4454L109.22 80.7494L107.388 79.9477ZM107.287 83.2445C106.167 82.4044 105.043 81.7767 103.914 81.384L103.257 83.273C104.152 83.5844 105.095 84.1006 106.087 84.8445L107.287 83.2445ZM103.939 81.3931C102.831 80.9747 101.666 80.7675 100.45 80.7675V82.7675C101.434 82.7675 102.359 82.9344 103.232 83.264L103.939 81.3931ZM100.45 80.7675C98.1096 80.7675 96.1834 81.5227 94.832 83.1391L96.3664 84.422C97.2589 83.3544 98.5668 82.7675 100.45 82.7675V80.7675ZM94.832 83.1391C93.5027 84.729 92.9162 86.9534 92.9162 89.6545H94.9162C94.9162 87.2077 95.4516 85.5161 96.3664 84.422L94.832 83.1391ZM92.9162 89.6545C92.9162 92.3768 93.5023 94.6195 94.8269 96.2298L96.3715 94.9593C95.4521 93.8416 94.9162 92.1243 94.9162 89.6545H92.9162ZM94.832 96.236C96.1834 97.8524 98.1096 98.6075 100.45 98.6075V96.6075C98.5668 96.6075 97.2589 96.0207 96.3664 94.9531L94.832 96.236ZM100.45 98.6075C101.659 98.6075 102.818 98.4138 103.92 98.0218L103.25 96.1373C102.373 96.4493 101.441 96.6075 100.45 96.6075V98.6075ZM103.932 98.0175C105.052 97.6035 106.17 96.9681 107.287 96.1305L106.087 94.5305C105.092 95.277 104.142 95.8076 103.239 96.1416L103.932 98.0175ZM105.771 95.7314L107.388 99.4274L109.22 98.6257L107.603 94.9297L105.771 95.7314ZM107.615 98.302C106.838 99.0409 105.807 99.6452 104.486 100.092L105.127 101.987C106.666 101.466 107.966 100.728 108.993 99.7511L107.615 98.302ZM104.494 100.089C103.192 100.517 101.813 100.733 100.351 100.733V102.733C102.013 102.733 103.604 102.486 105.118 101.99L104.494 100.089ZM115.843 100.281L115.343 101.147L115.349 101.151L115.356 101.154L115.843 100.281ZM111.85 96.0565L110.957 96.5081L110.962 96.5166L111.85 96.0565ZM111.85 83.2855L110.964 82.8211L110.96 82.8297L111.85 83.2855ZM115.843 79.1275L116.334 79.9985L116.338 79.9965L115.843 79.1275ZM128.02 79.1275L127.52 79.9938L127.528 79.9985L128.02 79.1275ZM131.98 83.2855L131.09 83.7414V83.7414L131.98 83.2855ZM131.98 96.0565L132.872 96.5081L131.98 96.0565ZM128.02 100.281L128.511 101.152L128.519 101.147L128.02 100.281ZM126.568 95.6275L125.79 94.9983L125.784 95.0059L126.568 95.6275ZM126.568 83.7145L125.789 84.3423L125.795 84.3498L126.568 83.7145ZM117.295 83.7145L116.522 83.0792L116.516 83.0868L117.295 83.7145ZM117.295 95.6605L116.511 96.2822L116.517 96.2891L116.522 96.2958L117.295 95.6605ZM121.948 100.733C119.756 100.733 117.895 100.279 116.329 99.4069L115.356 101.154C117.267 102.218 119.475 102.733 121.948 102.733V100.733ZM116.342 99.4144C114.798 98.5236 113.599 97.2596 112.738 95.5965L110.962 96.5166C111.992 98.5055 113.455 100.057 115.343 101.147L116.342 99.4144ZM112.742 95.605C111.901 93.9436 111.464 91.9698 111.464 89.6545H109.464C109.464 92.2233 109.95 94.5175 110.957 96.5081L112.742 95.605ZM111.464 89.6545C111.464 87.3389 111.901 85.3783 112.74 83.7414L110.96 82.8297C109.95 84.8008 109.464 87.0862 109.464 89.6545H111.464ZM112.735 83.75C113.595 82.1105 114.792 80.8685 116.334 79.9985L115.351 78.2566C113.461 79.3226 111.996 80.8526 110.964 82.8211L112.735 83.75ZM116.338 79.9965C117.901 79.1057 119.76 78.6425 121.948 78.6425V76.6425C119.471 76.6425 117.26 77.1694 115.348 78.2586L116.338 79.9965ZM121.948 78.6425C124.135 78.6425 125.981 79.1058 127.52 79.9937L128.519 78.2614C126.626 77.1693 124.424 76.6425 121.948 76.6425V78.6425ZM127.528 79.9985C129.068 80.8673 130.252 82.1066 131.09 83.7414L132.87 82.8297C131.859 80.8565 130.403 79.3238 128.511 78.2566L127.528 79.9985ZM131.09 83.7414C131.928 85.3783 132.366 87.3389 132.366 89.6545H134.366C134.366 87.0862 133.879 84.8008 132.87 82.8297L131.09 83.7414ZM132.366 89.6545C132.366 91.9698 131.928 93.9436 131.087 95.605L132.872 96.5081C133.879 94.5175 134.366 92.2233 134.366 89.6545H132.366ZM131.087 95.605C130.248 97.2636 129.062 98.5248 127.52 99.4144L128.519 101.147C130.409 100.056 131.863 98.5014 132.872 96.5081L131.087 95.605ZM127.528 99.4096C125.988 100.279 124.139 100.733 121.948 100.733V102.733C124.42 102.733 126.62 102.218 128.511 101.152L127.528 99.4096ZM121.948 98.7065C124.191 98.7065 126.037 97.9048 127.351 96.2492L125.784 95.0059C124.898 96.1223 123.664 96.7065 121.948 96.7065V98.7065ZM127.345 96.2567C128.664 94.6273 129.251 92.3783 129.251 89.6545H127.251C127.251 92.1228 126.715 93.8558 125.79 94.9983L127.345 96.2567ZM129.251 89.6545C129.251 86.9323 128.664 84.6896 127.34 83.0793L125.795 84.3498C126.715 85.4675 127.251 87.1848 127.251 89.6545H129.251ZM127.346 83.0868C126.03 81.4549 124.186 80.6685 121.948 80.6685V82.6685C123.67 82.6685 124.905 83.2462 125.789 84.3423L127.346 83.0868ZM121.948 80.6685C119.709 80.6685 117.859 81.4545 116.522 83.0793L118.067 84.3498C118.974 83.2466 120.226 82.6685 121.948 82.6685V80.6685ZM116.516 83.0868C115.218 84.6965 114.645 86.9361 114.645 89.6545H116.645C116.645 87.181 117.171 85.4606 118.073 84.3423L116.516 83.0868ZM114.645 89.6545C114.645 92.3941 115.218 94.6522 116.511 96.2822L118.078 95.0389C117.172 93.8969 116.645 92.151 116.645 89.6545H114.645ZM116.522 96.2958C117.859 97.9206 119.709 98.7065 121.948 98.7065V96.7065C120.226 96.7065 118.974 96.1285 118.067 95.0253L116.522 96.2958ZM139.551 99.1915L140.254 98.4799L139.551 99.1915ZM136.977 77.9395V76.9395H135.977V77.9395H136.977ZM142.026 77.9395H143.026V76.9395H142.026V77.9395ZM143.313 96.2545L142.557 96.9095L142.565 96.9184L142.573 96.9272L143.313 96.2545ZM150.804 96.2545L151.552 96.9179L151.56 96.9095L150.804 96.2545ZM152.091 77.9395V76.9395H151.091V77.9395H152.091ZM157.173 77.9395H158.173V76.9395H157.173V77.9395ZM154.566 99.1915L155.269 99.9032L155.269 99.9031L154.566 99.1915ZM147.075 100.733C143.939 100.733 141.722 99.9296 140.254 98.4799L138.848 99.9032C140.812 101.841 143.611 102.733 147.075 102.733V100.733ZM140.254 98.4799C138.788 97.0334 137.977 94.8429 137.977 91.7335H135.977C135.977 95.1802 136.882 97.9617 138.848 99.9032L140.254 98.4799ZM137.977 91.7335V77.9395H135.977V91.7335H137.977ZM136.977 78.9395H142.026V76.9395H136.977V78.9395ZM141.026 77.9395V91.9645H143.026V77.9395H141.026ZM141.026 91.9645C141.026 93.9737 141.486 95.6734 142.557 96.9095L144.069 95.5996C143.424 94.8557 143.026 93.6954 143.026 91.9645H141.026ZM142.573 96.9272C143.687 98.1528 145.239 98.7065 147.075 98.7065V96.7065C145.655 96.7065 144.699 96.2923 144.053 95.5819L142.573 96.9272ZM147.075 98.7065C148.91 98.7065 150.458 98.153 151.552 96.9179L150.056 95.5912C149.434 96.292 148.496 96.7065 147.075 96.7065V98.7065ZM151.56 96.9095C152.631 95.6734 153.091 93.9737 153.091 91.9645H151.091C151.091 93.6954 150.693 94.8557 150.048 95.5996L151.56 96.9095ZM153.091 91.9645V77.9395H151.091V91.9645H153.091ZM152.091 78.9395H157.173V76.9395H152.091V78.9395ZM156.173 77.9395V91.7335H158.173V77.9395H156.173ZM156.173 91.7335C156.173 94.8143 155.354 97.008 153.863 98.4799L155.269 99.9031C157.254 97.9431 158.173 95.1647 158.173 91.7335H156.173ZM153.863 98.4799C152.394 99.9308 150.187 100.733 147.075 100.733V102.733C150.519 102.733 153.306 101.84 155.269 99.9032L153.863 98.4799ZM181.811 77.9395H182.811V76.9395H181.811V77.9395ZM181.811 101.436V102.436H182.811V101.436H181.811ZM177.983 101.436L177.195 102.052L177.496 102.436H177.983V101.436ZM166.268 86.4535L167.056 85.8376L165.268 83.5512V86.4535H166.268ZM166.268 101.436V102.436H167.268V101.436H166.268ZM161.45 101.436H160.45V102.436H161.45V101.436ZM161.45 77.9395V76.9395H160.45V77.9395H161.45ZM165.245 77.9395L166.032 77.3227L165.732 76.9395H165.245V77.9395ZM176.96 92.8885L176.173 93.5054L177.96 95.7858V92.8885H176.96ZM176.96 77.9395V76.9395H175.96V77.9395H176.96ZM180.811 77.9395V101.436H182.811V77.9395H180.811ZM181.811 100.436H177.983V102.436H181.811V100.436ZM178.771 100.82L167.056 85.8376L165.48 87.0695L177.195 102.052L178.771 100.82ZM165.268 86.4535V101.436H167.268V86.4535H165.268ZM166.268 100.436H161.45V102.436H166.268V100.436ZM162.45 101.436V77.9395H160.45V101.436H162.45ZM161.45 78.9395H165.245V76.9395H161.45V78.9395ZM164.458 78.5564L176.173 93.5054L177.747 92.2717L166.032 77.3227L164.458 78.5564ZM177.96 92.8885V77.9395H175.96V92.8885H177.96ZM176.96 78.9395H181.811V76.9395H176.96V78.9395ZM191.654 82.1305H192.654V81.1305H191.654V82.1305ZM184.295 82.1305H183.295V83.1305H184.295V82.1305ZM184.295 77.9395V76.9395H183.295V77.9395H184.295ZM204.227 77.9395H205.227V76.9395H204.227V77.9395ZM204.227 82.1305V83.1305H205.227V82.1305H204.227ZM196.868 82.1305V81.1305H195.868V82.1305H196.868ZM196.868 101.436V102.436H197.868V101.436H196.868ZM191.654 101.436H190.654V102.436H191.654V101.436ZM191.654 81.1305H184.295V83.1305H191.654V81.1305ZM185.295 82.1305V77.9395H183.295V82.1305H185.295ZM184.295 78.9395H204.227V76.9395H184.295V78.9395ZM203.227 77.9395V82.1305H205.227V77.9395H203.227ZM204.227 81.1305H196.868V83.1305H204.227V81.1305ZM195.868 82.1305V101.436H197.868V82.1305H195.868ZM196.868 100.436H191.654V102.436H196.868V100.436ZM192.654 101.436V82.1305H190.654V101.436H192.654Z" fill="white"/>
<path fill-rule="evenodd" clip-rule="evenodd" d="M310.109 116.693C310.869 117.066 312.247 117.216 313.096 117.019C314.67 116.652 315.771 115.642 315.912 114.435C316.261 111.446 311.085 110.147 308.954 112.689C308.284 113.489 308.224 114.831 308.822 115.636C309.29 116.266 309.367 116.33 310.109 116.693ZM319.192 123.239C320.686 123.802 322.097 123.697 323.321 122.93C326.178 121.139 324.61 117.771 320.94 117.815C319.893 117.827 319.235 118.048 318.398 118.666C317.187 119.561 316.897 121.029 317.714 122.13C318.205 122.792 318.407 122.943 319.192 123.239ZM328.196 129.797C329.575 130.317 331.281 130.086 332.454 129.219C334.811 127.477 333.491 124.478 330.284 124.288C327.961 124.151 325.96 125.657 326.125 127.419C326.226 128.509 326.933 129.32 328.196 129.797ZM319.172 116.779C319.933 117.152 321.31 117.302 322.159 117.104C323.734 116.737 324.835 115.727 324.975 114.521C325.13 113.196 324.184 112.082 322.485 111.587C320.855 111.112 319.149 111.554 318.084 112.729C317.342 113.548 317.254 114.871 317.886 115.722C318.353 116.352 318.431 116.415 319.172 116.779ZM328.04 123.25C329.701 123.954 331.377 123.802 332.682 122.829C334.644 121.366 334.043 118.83 331.561 118.104C330.707 117.854 329.386 117.84 328.684 118.074C327.877 118.344 326.808 119.219 326.523 119.843C325.946 121.105 326.637 122.655 328.04 123.25ZM337.259 129.882C338.639 130.402 340.344 130.171 341.517 129.305C343.875 127.563 342.555 124.564 339.347 124.374C337.047 124.237 335.023 125.743 335.185 127.47C335.288 128.567 336.015 129.413 337.259 129.882ZM318.787 110.026C318.87 110.065 319.186 110.238 319.489 110.409C320.172 110.795 321.72 110.893 322.737 110.613C324.246 110.198 325.255 109.034 325.189 107.785C325.042 105.001 320.319 103.988 318.308 106.31C317.728 106.979 317.5 107.973 317.764 108.674C317.941 109.144 318.508 109.892 318.787 110.026ZM328.233 116.866C330.172 117.804 332.938 117.095 333.786 115.443C335.069 112.942 331.683 110.591 328.587 111.832C326.006 112.866 325.807 115.692 328.233 116.866ZM337.104 123.335C338.78 124.046 340.433 123.888 341.785 122.889C343.717 121.462 343.093 118.924 340.627 118.185C339.847 117.951 338.387 117.949 337.685 118.182C336.936 118.43 335.863 119.323 335.586 119.928C335.009 121.19 335.7 122.74 337.104 123.335ZM346.232 129.921C347.705 130.469 349.395 130.266 350.567 129.4C351.438 128.757 351.655 128.418 351.756 127.546C352.069 124.87 347.973 123.412 345.428 125.293C343.564 126.67 343.984 129.084 346.232 129.921ZM329.066 110.715C329.789 110.936 331.107 110.911 331.932 110.661C333.367 110.226 334.317 109.084 334.253 107.87C334.105 105.086 329.382 104.074 327.371 106.395C326.761 107.1 326.564 108.073 326.872 108.862C327.131 109.527 328.24 110.464 329.066 110.715ZM337.296 116.951C339.236 117.89 342.002 117.181 342.85 115.528C344.19 112.916 340.485 110.551 337.381 112.037C335.037 113.159 334.991 115.836 337.296 116.951ZM346.16 123.425C347.893 124.128 349.497 123.973 350.849 122.974C352.78 121.547 352.156 119.009 349.691 118.27C348.91 118.036 347.45 118.035 346.748 118.267C345.621 118.64 344.5 119.866 344.427 120.805C344.354 121.754 345.203 123.038 346.16 123.425ZM355.227 129.964C356.685 130.554 358.472 130.368 359.642 129.503C360.479 128.885 360.79 128.389 360.845 127.587C361.037 124.769 356.702 123.453 354.252 125.585C352.709 126.929 353.202 129.143 355.227 129.964ZM329.415 104.353C333.238 105.299 336.151 101.785 333.368 99.584C332.157 98.627 330.351 98.4506 328.763 99.134C327.345 99.7438 326.634 101.114 327.055 102.422C327.304 103.193 328.42 104.106 329.415 104.353ZM338.148 110.787C341.278 111.582 344.07 109.528 343.139 107.114C342.808 106.253 341.573 105.428 340.353 105.252C337.51 104.842 335.126 106.853 335.945 108.969C336.206 109.643 337.344 110.582 338.148 110.787ZM346.457 117.021C349.034 118.229 352.3 116.736 352.177 114.408C352.044 111.899 348.172 110.75 345.818 112.521C344.013 113.878 344.317 116.019 346.457 117.021ZM355.166 123.458C356.782 124.227 358.531 124.08 359.912 123.06C360.993 122.261 361.344 121.012 360.795 119.917C359.872 118.075 356.642 117.563 354.754 118.958C354.02 119.5 353.541 120.232 353.491 120.89C353.419 121.815 354.188 122.994 355.166 123.458ZM364.291 130.049C366.766 131.052 369.87 129.702 369.939 127.594C369.995 125.878 368.233 124.536 366.043 124.624C364.936 124.669 364.092 124.995 363.3 125.685C361.773 127.014 362.277 129.233 364.291 130.049ZM338.479 104.438C338.857 104.532 339.542 104.593 340.001 104.575C343.195 104.446 344.694 101.466 342.459 99.6883C341.259 98.7344 339.462 98.5311 337.916 99.1744C336.405 99.8028 335.607 101.383 336.173 102.624C336.518 103.381 337.578 104.215 338.479 104.438ZM347.212 110.872C350.342 111.667 353.133 109.613 352.203 107.199C351.871 106.338 350.636 105.513 349.416 105.337C346.582 104.929 344.192 106.944 345.008 109.054C345.269 109.729 346.408 110.668 347.212 110.872ZM355.52 117.107C358.122 118.325 361.364 116.833 361.239 114.476C361.195 113.645 360.775 113 359.889 112.404C357.145 110.56 352.777 112.848 353.886 115.548C354.153 116.199 354.706 116.725 355.52 117.107ZM364.229 123.544C365.845 124.312 367.594 124.166 368.974 123.146C369.759 122.566 370.117 121.977 370.141 121.227C370.208 119.16 367.775 117.785 365.144 118.403C364.016 118.667 362.924 119.623 362.68 120.56C362.384 121.695 363.054 122.985 364.229 123.544ZM373.354 130.135C376.178 131.279 379.582 129.386 378.934 127.032C378.267 124.61 374.531 123.883 372.379 125.756C370.836 127.1 371.329 129.314 373.354 130.135ZM347.453 104.478C347.853 104.597 348.567 104.68 349.04 104.661C352.268 104.531 353.775 101.565 351.522 99.7736C349.324 98.0259 345.462 99.0435 345.08 101.471C344.883 102.721 345.903 104.013 347.453 104.478ZM356.275 110.957C359.405 111.752 362.196 109.698 361.266 107.285C360.934 106.424 359.699 105.598 358.48 105.423C355.568 105.003 353.108 107.192 354.152 109.273C354.479 109.927 355.545 110.772 356.275 110.957ZM365.429 117.493C365.892 117.608 366.679 117.651 367.179 117.59C367.926 117.498 368.248 117.37 368.992 116.871C369.794 116.333 369.93 116.176 370.185 115.497C370.604 114.38 370.23 113.389 369.089 112.592C368.058 111.871 366.889 111.655 365.584 111.944C364.853 112.106 364.573 112.249 363.888 112.812C363.214 113.365 363.034 113.612 362.884 114.188C362.625 115.185 362.918 115.949 363.842 116.688C364.389 117.126 364.812 117.34 365.429 117.493ZM373.292 123.629C375.016 124.449 376.759 124.265 378.149 123.117C379.198 122.25 379.46 121.433 379.03 120.367C378.381 118.757 376.38 117.978 374.208 118.488C373.131 118.74 372.021 119.686 371.756 120.576C371.423 121.692 372.117 123.07 373.292 123.629ZM382.43 130.243C383.371 130.668 385.197 130.639 386.204 130.182C387.732 129.489 388.421 128.134 387.901 126.846C387.362 125.508 385.934 124.723 384.169 124.795C383.067 124.839 382.219 125.165 381.438 125.846C379.911 127.175 380.395 129.322 382.43 130.243ZM356.512 104.564C359.119 105.303 361.756 103.844 361.643 101.724C361.597 100.85 361.402 100.508 360.573 99.8486C358.004 97.8061 353.54 99.612 354.196 102.428C354.402 103.311 355.428 104.257 356.512 104.564ZM365.343 111.039C368.153 111.705 370.646 110.271 370.494 108.076C370.371 106.309 368.06 105.077 365.771 105.557C363.944 105.941 362.766 107.36 363.054 108.829C363.169 109.416 363.326 109.652 363.978 110.219C364.537 110.705 364.931 110.942 365.343 111.039ZM374.471 117.576C374.946 117.692 375.747 117.736 376.252 117.674C377.08 117.572 377.266 117.489 378.169 116.823C379.048 116.173 379.188 116.008 379.337 115.444C379.607 114.421 379.37 113.729 378.479 112.939C377.843 112.375 377.568 112.225 376.851 112.05C375.533 111.729 374.374 111.928 373.262 112.667C372.504 113.172 372.307 113.381 372.069 113.935C371.633 114.948 371.88 115.834 372.831 116.677C373.48 117.252 373.751 117.401 374.471 117.576ZM382.304 123.658C383.837 124.492 385.67 124.373 387.054 123.351C388.639 122.18 388.736 120.462 387.282 119.306C386.259 118.493 384.772 118.221 383.271 118.573C382.195 118.826 381.084 119.771 380.819 120.661C380.488 121.771 381.099 123.003 382.304 123.658ZM391.493 130.328C392.397 130.737 394.245 130.723 395.203 130.299C398.437 128.869 397.401 125.103 393.713 124.884C391.16 124.733 389.104 126.547 389.696 128.429C389.937 129.197 390.643 129.943 391.493 130.328ZM365.576 104.65C368.096 105.364 370.69 104.003 370.755 101.933C370.778 101.174 370.433 100.539 369.662 99.9267C367.098 97.8873 362.604 99.7026 363.26 102.513C363.465 103.396 364.491 104.342 365.576 104.65ZM374.406 111.125C376.61 111.647 378.633 110.916 379.381 109.326C379.851 108.327 379.66 107.459 378.795 106.662C378.432 106.327 377.865 105.946 377.535 105.814C374.862 104.743 371.584 106.665 372.125 108.985C372.318 109.812 373.484 110.906 374.406 111.125ZM383.535 117.662C384.852 117.983 386.011 117.784 387.123 117.045C387.882 116.54 388.079 116.331 388.317 115.777C388.752 114.764 388.506 113.878 387.554 113.035C386.905 112.46 386.634 112.311 385.914 112.135C384.597 111.814 383.437 112.014 382.326 112.753C381.567 113.257 381.37 113.466 381.132 114.02C380.697 115.034 380.943 115.92 381.894 116.762C382.544 117.338 382.814 117.486 383.535 117.662ZM391.372 123.74C392.859 124.566 394.772 124.454 396.142 123.459C398.538 121.719 397.184 118.711 393.916 118.517C391.522 118.375 389.484 120.006 389.836 121.781C389.98 122.509 390.616 123.32 391.372 123.74ZM400.482 130.363C401.422 130.83 403.242 130.837 404.279 130.379C406.307 129.482 406.856 127.479 405.452 126.101C403.461 124.147 399.63 124.791 398.803 127.219C398.401 128.399 399.078 129.666 400.482 130.363ZM374.639 104.735C376.711 105.322 378.829 104.562 379.583 102.959C380.523 100.964 378.502 98.9814 375.711 99.1607C373.505 99.3026 371.928 100.903 372.323 102.599C372.529 103.481 373.555 104.428 374.639 104.735ZM383.469 111.21C386.544 111.94 389.401 109.982 388.565 107.716C388.156 106.608 386.594 105.64 385.13 105.587C382.821 105.504 380.834 107.226 381.183 109.009C381.295 109.586 381.455 109.825 382.105 110.389C382.663 110.875 383.058 111.112 383.469 111.21ZM383.707 104.819C385.843 105.459 388.173 104.507 388.772 102.749C389.414 100.865 387.385 99.0784 384.793 99.2449C383.116 99.3528 381.82 100.252 381.446 101.569C381.056 102.94 382.01 104.31 383.707 104.819ZM392.54 111.29C393.388 111.501 394.393 111.508 395.241 111.309C396.363 111.046 397.462 110.088 397.701 109.163C398.154 107.413 396.238 105.614 393.985 105.676C392.847 105.706 392.171 105.961 391.29 106.689C390.278 107.525 389.971 108.407 390.343 109.411C390.63 110.189 391.663 111.071 392.54 111.29ZM392.763 104.909C393.664 105.17 394.978 105.132 395.816 104.82C396.622 104.52 397.491 103.742 397.816 103.027C398.12 102.359 397.9 101.15 397.367 100.558C395.934 98.967 392.69 98.9146 391.169 100.458C390.557 101.079 390.253 102.267 390.526 102.971C390.84 103.778 391.834 104.64 392.763 104.909ZM401.829 104.991C404.615 105.78 407.46 104.021 406.975 101.81C406.321 98.83 400.994 98.5314 399.697 101.402C399.069 102.793 400.081 104.496 401.829 104.991Z" fill="#747070"/>
<defs>
<linearGradient id="paint0_linear_5300_2568" x1="7.96161" y1="0" x2="7.96161" y2="130.463" gradientUnits="userSpaceOnUse">
<stop stop-color="#FD9149"/>
<stop offset="1" stop-color="#FD9149" stop-opacity="0"/>
</linearGradient>
<linearGradient id="paint1_linear_5300_2568" x1="557.586" y1="56.8732" x2="454.537" y2="130.052" gradientUnits="userSpaceOnUse">
<stop stop-color="#FFF8ED"/>
<stop offset="1" stop-color="#FFF8ED" stop-opacity="0"/>
</linearGradient>
<linearGradient id="paint2_linear_5300_2568" x1="557.586" y1="56.8732" x2="454.537" y2="130.052" gradientUnits="userSpaceOnUse">
<stop stop-color="#FFF8ED"/>
<stop offset="1" stop-color="#FFF8ED" stop-opacity="0"/>
</linearGradient>
<linearGradient id="paint3_linear_5300_2568" x1="401.5" y1="10" x2="401.5" y2="96" gradientUnits="userSpaceOnUse">
<stop stop-color="#FD9149"/>
<stop offset="1" stop-color="#FD9149" stop-opacity="0"/>
</linearGradient>
</defs>
</svg>
